<?xml version="1.0" encoding="utf-8"?>
<!-- Generator: Adobe Illustrator 27.0.0, SVG Export Plug-In . SVG Version: 6.00 Build 0)  -->
<svg version="1.1" id="Ebene_1" xmlns="http://www.w3.org/2000/svg" xmlns:xlink="http://www.w3.org/1999/xlink" x="0px" y="0px"
	 viewBox="0 0 576 387.7" style="enable-background:new 0 0 576 387.7;" xml:space="preserve">
<style type="text/css">
	.st0{fill:#00121E;}
	.st1{fill:#FFFFFF;}
	.st2{fill:#A5C400;}
</style>
<g>
	<path class="st0" d="M447.9,207.6c2.7-2.5,2.5-6.3-0.4-8.5c-3-2.2-3.4-6.2-0.9-9s1.9-6.5-1.3-8.4c-3.2-1.9-4-5.8-1.9-8.8
		c2.2-3,1.2-6.7-2.2-8.2c-3.4-1.5-4.6-5.4-2.8-8.6c1.8-3.2,0.5-6.8-3-7.9c-3.5-1.2-5.2-4.9-3.7-8.3s-0.3-6.8-3.9-7.6
		s-5.6-4.3-4.5-7.8s-1-6.7-4.6-7.1c-3.7-0.4-6.1-3.7-5.3-7.3c0.7-3.6-1.7-6.6-5.4-6.6c-3.7,0-6.4-3-6-6.7s-2.3-6.4-6-6
		s-6.7-2.4-6.7-6c0-3.7-3-6.1-6.6-5.4s-6.9-1.6-7.3-5.3c-0.2-2.1-1.4-3.7-3.1-4.5c0.2-0.3,0.4-0.6,0.5-0.8
		c8.5-13.7,11.6-30.3,11.9-46.6l-0.1-1.8v-3.5c0.1-0.3,0-0.7,0.1-1l-0.1-1.2c-0.3-3.2,0.6-6.6-1.6-9.4c-0.5-0.6-1.1-0.6-1.5-0.2
		s-1,1.2-1.1,1.6l-0.7,1.4c-0.2,0.3-0.5,0.7-0.9,1l-1.1,1.1l-0.9,0.7l-1.5,1c-1.9,1.3-3.9,2.5-6.1,3.6l-1.2,0.7l-1.4,0.7
		c-3.1,1.2-6,2.4-9,3.4c-0.6,0.2-1,0.5-1.5,0.5c-2,1.1-4,2.2-6.1,2.9c-0.5,0-1.1,0.3-1.5,0.5c-5,1.2-9.7,2.9-14.6,4.3l-1.5,0.3
		l-4.2,1.4c-0.5,0-0.9,0.3-1.3,0.5l-1.2,0.6c-3.4,2.5-7.2,4.2-10.2,7.1l-1,1.2c-1.8,2-3.7,3.8-5.7,5.7c-1.9-1.2-4.4-1-6.4,0.7
		c-2.3,2-5.5,2.1-7.8,0.3c0.4-2.4,0.9-4.7,1.2-7.1c0.1-0.3,0.2-0.6,0.2-0.9c0.3-1.3,0.8-2.5,1.3-3.8c0-0.3,0.1-0.6,0.2-0.9
		c0.4-1.9,0.9-3.6,1.4-5.5l0.3-0.9l0.4-0.8c0.5-1.3,1-2.6,1.7-3.8l0.5-0.9l0.3-0.6l0.6-0.7c0.1-0.3,0.4-0.5,0.5-0.6l0.8-0.5
		c0.3-0.1,0.7-0.5,0.9-0.8s0.2-0.6-0.2-0.9c-1.8-1-3.7-0.3-5.6-0.2l-0.7,0.1c-0.2,0.1-0.4,0-0.6,0.1l-2.1,0.2l-1,0.1
		c-9.6,1.3-19.1,4.4-26.6,10.4c-1.2,0.9-2.3,1.8-3.3,2.8l-0.6,0.7c-2.2,1.6-2.8,4.5-4.6,6.4l-0.6,0.6l-0.4,0.8l-0.9,1.4l-0.4,0.8
		l-0.4,0.8c-0.2,0.2-0.3,0.4-0.4,0.7l-0.3,0.7c-0.2,0.2-0.3,0.4-0.4,0.7c0,0,0,0,0,0.1c-2.1-0.3-4.2,0.6-5.5,2.7
		c-1.9,3.2-5.8,4-8.8,1.9c-3-2.2-6.7-1.2-8.2,2.2s-5.4,4.6-8.6,2.8c-3.2-1.8-6.8-0.5-7.9,3c-1.2,3.5-4.9,5.2-8.3,3.7
		s-6.8,0.3-7.6,3.9c-0.8,3.6-4.3,5.6-7.8,4.5s-6.7,1-7.1,4.6c-0.4,3.7-3.7,6.1-7.3,5.3c-3.6-0.7-6.6,1.7-6.6,5.4c0,3.7-3,6.4-6.7,6
		s-6.4,2.3-6,6c0.4,3.7-2.4,6.7-6,6.7c-3.7,0-6.1,3-5.4,6.6s-1.6,6.9-5.3,7.3s-5.8,3.6-4.6,7.1c1.1,3.5-0.9,7-4.5,7.8
		c-3.6,0.8-5.3,4.2-3.9,7.6s-0.2,7.1-3.7,8.3s-4.9,4.7-3,7.9c1.8,3.2,0.6,7.1-2.8,8.6c-3.4,1.5-4.4,5.2-2.2,8.2s1.3,7-1.9,8.8
		c-3.2,1.9-3.8,5.6-1.3,8.4c2.5,2.8,2,6.8-0.9,9c-3,2.2-3.2,6-0.4,8.5c2.7,2.5,2.7,6.6,0,9c-2.7,2.5-2.5,6.3,0.4,8.5
		c3,2.2,3.4,6.2,0.9,9s-1.9,6.5,1.3,8.4c3.2,1.9,4,5.8,1.9,8.8c-2.2,3-1.2,6.7,2.2,8.2c3.4,1.5,4.6,5.4,2.8,8.6s-0.5,6.8,3,7.9
		c3.5,1.2,5.2,4.9,3.7,8.3s0.3,6.8,3.9,7.6c3.6,0.8,5.6,4.3,4.5,7.8c-1.1,3.5,1,6.7,4.6,7.1c3.7,0.4,6.1,3.7,5.3,7.3
		s1.7,6.6,5.4,6.6s6.4,3,6,6.7c-0.4,3.7,2.3,6.4,6,6s6.7,2.4,6.7,6c0,3.7,3,6.1,6.6,5.4s6.9,1.6,7.3,5.3c0.4,3.7,3.6,5.8,7.1,4.6
		c3.5-1.1,7,0.9,7.8,4.5c0.8,3.6,4.2,5.3,7.6,3.9c3.4-1.5,7.1,0.2,8.3,3.7c1.2,3.5,4.7,4.9,7.9,3c3.2-1.8,7.1-0.6,8.6,2.8
		s5.2,4.4,8.2,2.2c3-2.2,7-1.3,8.8,1.9s5.6,3.8,8.4,1.3s6.8-2,9,0.9c2.2,3,6,3.2,8.5,0.4c2.5-2.7,6.6-2.7,9,0
		c2.5,2.7,6.3,2.5,8.5-0.4c2.2-3,6.2-3.4,9-0.9s6.5,1.9,8.4-1.3s5.8-4,8.8-1.9c3,2.2,6.7,1.2,8.2-2.2c1.5-3.4,5.4-4.6,8.6-2.8
		c3.2,1.8,6.8,0.5,7.9-3c1.2-3.5,4.9-5.2,8.3-3.7c3.4,1.5,6.8-0.3,7.6-3.9s4.3-5.6,7.8-4.5s6.7-1,7.1-4.6c0.4-3.7,3.7-6.1,7.3-5.3
		c3.6,0.7,6.6-1.7,6.6-5.4c0-3.7,3-6.4,6.7-6s6.4-2.3,6-6s2.4-6.7,6-6.7c3.7,0,6.1-3,5.4-6.6s1.6-6.9,5.3-7.3
		c3.7-0.4,5.8-3.6,4.6-7.1c-1.1-3.5,0.9-7,4.5-7.8s5.3-4.2,3.9-7.6s0.2-7.1,3.7-8.3c3.5-1.2,4.9-4.7,3-7.9c-1.8-3.2-0.6-7.1,2.8-8.6
		s4.4-5.2,2.2-8.2c-2.2-3-1.3-7,1.9-8.8c3.2-1.9,3.8-5.6,1.3-8.4c-2.5-2.8-2-6.8,0.9-9c3-2.2,3.2-6,0.4-8.5
		C445.1,214.2,445.1,210.1,447.9,207.6"/>
	<path class="st1" d="M425.7,189.2c-0.5,0-0.9-0.3-0.9-0.8c-7-42.8-32.5-80.1-70-102.3c-0.5-0.3-0.6-0.9-0.3-1.3
		c0.3-0.5,0.8-0.6,1.3-0.3c38,22.5,63.9,60.2,70.9,103.6c0.1,0.5-0.3,1-0.8,1.1C425.8,189.2,425.8,189.2,425.7,189.2z"/>
</g>
<path class="st1" d="M427.4,207.8c-0.4-0.2-1-0.4-1.3,0c-0.2,0.1-0.4,0.3-0.5,0.5c-1.1,2-2,4.1-3.1,6.2l-0.4,0.8l-0.5,0.8
	c-1.1,2.1-2.3,4.3-3.7,6.1l-0.3,0.4c-0.1,0.2-0.3,0.3-0.4,0.4c-1.5,1.9-3,4-4.9,5.6l-0.4,0.4l-0.9,0.7c-1.7,1.3-3.4,2.7-5.3,4
	l-0.6,0.4c-1.3,1-2.9,1.8-4.4,2.4l-0.7,0.2l-0.8,0.3c-1.1,0.5-2.4,0.9-3.6,1.2l-0.6,0.2c-0.5,0.1-0.9,0.3-1.2,0.6
	c0-0.1,0.1-0.1,0.1-0.2c-1.6,0.8-3.3,0.7-5.1,0.7H388c-0.5,0-1-0.1-1.4-0.1c-0.2-0.1-0.5-0.1-0.7-0.1h-0.6c-0.1,0-0.1,0-0.2-0.1
	h-0.2c-0.3,0-0.5-0.1-0.8-0.2c-0.1,0-0.2-0.1-0.4-0.1c0,0-0.2-0.1-0.3-0.2c-0.1,0-0.2-0.1-0.3-0.1c-0.4-0.1-0.8-0.2-1.1-0.5
	c-0.8-0.5-1.1-1.1-1.5-2c-1.3-3.2-1-7-0.2-10.3c1.3,0,2.7-0.1,4-0.2c1.6-0.1,3.2-0.6,4.7-1.1l0.8-0.1c3-0.6,5.8-1.4,8.6-2.7l1.3-0.7
	c3.2-1.7,5.9-4,8.4-6.6c3.1-3.4,5.7-7.8,5.9-12.5c0.1-0.6,0.1-1.1,0-1.6c-0.1-6-6.3-9.3-11.7-8.5H401c-1.2,0.1-2.6,0.4-3.8,0.8
	c-0.5,0.2-1,0.3-1.4,0.6c-1.3,0.5-2.7,1.1-3.9,1.9l-1.2,0.8c-3.2,1.7-5.5,4.4-7.7,7.2c-0.3,0.4-0.6,0.8-1,1.1
	c-2.1,3.4-4.5,6.7-5.9,10.4l-0.3,1c-0.7,2-1.3,3.9-1.7,5.9l-0.2,0.2l-1.1,1.8c-0.1,0.2-0.2,0.4-0.4,0.6c-1,1.8-2.5,3.2-3.7,4.8
	l-0.6,0.7c-1.5,1.6-3.2,3.2-4.9,4.7l-1,0.9c-0.8,0.5-1.5,1.1-2.2,1.6c-2.1,1.4-4.3,3.1-6.6,3.6c-0.7,0.2-1,0.2-1.6,0.3
	c-0.1,0-0.3-0.1-0.5-0.1H351c-1.9-0.4-1.7-2.6-1.1-3.9c0-0.2,0-0.4,0.1-0.6c0-0.2,0-0.4,0.1-0.6c0.5-1.9,1.1-3.8,1.6-5.7l0.4-0.9
	c0.1-0.4,0.2-0.7,0.4-1c0.1-0.3,0.3-0.6,0.4-1l0.5-0.9l2-3.9c1.3-2.7,2.6-5.4,3.8-8.2c1.1-2.9,2.3-5.6,3.5-8.4
	c1.2-2.8,2.6-5.4,3.9-8.2l2.9-6.8l0.6-1.3c1-2.3,2.1-4.5,3.1-6.7c1.8-3.7,3.3-7.6,5.4-11.2l0.5-0.8c1-1.2,1.8-3.2-0.1-4.1l-0.9-0.3
	c-1.7-0.4-4.3,0.1-5.1,1.1c-0.3,0.4-0.6,0.7-0.8,1c-1,1.3-1.5,3-1.9,4.6c-0.2,0.3-0.3,0.7-0.4,1c-0.4,1-2.6,5-2.8,6
	c-0.2,0.4-0.4,0.8-0.5,1.2l-1.6,3.7l-0.4,0.8c-1.3,2.6-2.4,5.3-3.5,7.9c0,0-0.1,0.3-0.3,0.7l-0.2,0.6c-0.8,2-1.6,4-2.3,5.9l-0.3,0.7
	l-0.3,0.6c-1.1,2-1.8,4.2-2.7,6.3c-0.1,0.1-0.1,0.1-0.2,0.2c-0.5,0.9-0.9,1.9-1.4,2.8l0,0v0.1c-0.5,1.1-1,2.2-1.6,3.3l-0.4,0.8
	l-0.5,0.8c-0.8,1.4-1.5,3-2.5,4.4l-0.4,0.6l-0.5,0.6c-1.4,2-2.6,4.1-4.3,5.9l-0.4,0.4l-1.6,1.8l-1.7,1.7l-1.2,1.1l-1.2,1
	c-1.3,1-2.8,1.9-4.2,2.8l-0.7,0.3c-0.1,0.1-0.1,0.1-0.2,0.1c-0.1,0-0.2,0.1-0.4,0.1c-0.7,0.3-1,0.3-1.5,0.3h-1
	c-0.1,0-0.1-0.1-0.2-0.1c0,0-0.2,0-0.2-0.1h-0.1V237c0,0-0.1,0-0.1-0.1v-0.2l-0.1-0.1v-0.2c0-0.4,0-0.8,0.1-1.2c0,0.2,0-0.3,0.1-0.4
	c0-0.3,0.1-0.6,0.1-0.8c0.1-0.8,0.3-1.4,0.6-2.1c0.4-1.2,0.9-2.3,1.3-3.5l1.3-3.3l0.4-1.1c0.2-0.7,0.4-1.4,0.8-2.1
	c1.8-3.4,2.6-7.2,3.5-10.9c0-0.5,0.1-1,0.2-1.5c0.4-2.6,0.6-5.1,0.2-7.5l-0.3-1.3c-0.4-1.2-1-2.5-1.6-3.6l-0.8-1.2
	c-1.1-1.4-2.6-2.3-4.2-2.8c-0.5-0.2-1-0.3-1.4-0.4c-2.5-0.5-4.9,0.1-7,1.1l-0.8,0.4c-3,1.2-5.3,3.7-7.2,6.3l-0.4,0.5
	c-0.5,0.8-0.9,1.5-1.3,2.2c0.2-1,0.8-1.9,1-3c0.1-0.3,0.2-0.6,0.4-0.9c0.6-1.6,1.1-3.2,1.6-4.9c0-0.3,0.1-0.5,0.1-0.8
	c-1.1-2-4.2-0.4-6.1-0.9c-0.3,0.1-0.5,0.1-0.8,0.1l-0.8,0.3L307,193l-0.4,0.5c-0.2,0.3-0.3,0.7-0.1,1.1c0.5,1.2,0.8,2.4,0.2,3.5
	c0,0.3-0.1,0.6-0.2,0.9c-0.4,1.5-0.9,3.1-1.5,4.6l-0.2,0.8l-0.3,0.8c-0.3,1.1-0.7,2.2-1.1,3.3c-1,2-2,4.1-3,6.1l-0.4,0.8l-0.5,0.8
	c-1.1,2.1-2.3,4.3-3.7,6.1l-0.3,0.4c-0.1,0.2-0.3,0.3-0.4,0.4c-1.5,1.9-3,4-4.9,5.6l-0.4,0.4l-0.9,0.7c-1.7,1.3-3.4,2.7-5.3,4
	l-0.6,0.4c-1.3,1-2.9,1.8-4.4,2.4l-0.7,0.2l-0.8,0.3c-1.1,0.5-2.4,0.9-3.6,1.2l-0.6,0.2c-0.5,0.1-0.9,0.3-1.2,0.6
	c0-0.1,0.1-0.1,0.1-0.2c-1.6,0.8-3.3,0.7-5.1,0.7h-0.8c-0.5,0-1-0.1-1.4-0.1c-0.2-0.1-0.5-0.1-0.7-0.1h-0.6c-0.1,0-0.1,0-0.2-0.1
	h-0.2c-0.3,0-0.5-0.1-0.8-0.2c-0.1,0-0.2-0.1-0.4-0.1c0,0-0.2-0.1-0.3-0.2c-0.1,0-0.2-0.1-0.3-0.1c-0.4-0.1-0.8-0.2-1.1-0.5
	c-0.8-0.5-1.1-1.1-1.5-2c-1.3-3.2-1.1-7-0.2-10.3c1.3,0,2.7-0.1,4-0.2c1.6-0.1,3.2-0.6,4.7-1.1l0.8-0.1c3-0.6,5.8-1.4,8.6-2.7
	l1.3-0.7c3.2-1.7,5.9-4,8.4-6.6c3.1-3.4,5.7-7.8,5.9-12.5c0.1-0.6,0.1-1.1,0-1.6c-0.1-6-6.3-9.3-11.7-8.5h-1.3
	c-1.2,0.1-2.6,0.4-3.8,0.8c-0.5,0.2-1,0.3-1.4,0.6c-1.3,0.5-2.7,1.1-3.9,1.9l-1.2,0.8c-3.2,1.7-5.5,4.4-7.7,7.2
	c-0.3,0.4-0.6,0.8-1,1.1c-2.1,3.4-4.5,6.7-5.9,10.4l-0.3,1c-0.7,2-1.3,3.9-1.7,5.9c-0.6,1-1.3,1.9-1.9,2.9c-0.2,0.3-0.4,0.6-0.7,0.9
	L249,226c-0.2,0.3-0.4,0.6-0.7,0.8l-1,1.3c-0.2,0.2-0.4,0.5-0.7,0.7l-0.6,0.7c-1.5,1.6-3.2,3.2-4.9,4.7l-1.1,0.9
	c-0.4,0.3-0.7,0.6-1.1,0.8l-1.1,0.9c-1.4,0.9-2.7,2.1-4.3,2.8c-0.4,0.3-0.8,0.4-1.1,0.5c-0.8,0.3-1.5,0.4-2.2,0.1
	c-0.4-0.1-0.8-0.3-1.1-0.6c-2.9-2.8-0.3-6.7,0.5-9.8c0.4-1.6,1.2-3.1,2-4.6c0.1-0.3,0.3-0.6,0.5-0.9c0.1-0.3,0.2-0.6,0.4-0.9
	c0.6-1.2,1.1-2.4,1.8-3.5c0.1-0.3,0.2-0.6,0.4-0.9l2.2-5c1.1-2.9,2.3-5.6,3.5-8.4l1.1-2.5l0.4-0.8c0.2-0.3,0.3-0.6,0.4-0.9
	c1.1-2.6,2.2-5.2,3.4-7.7c0.2-0.3,0.3-0.6,0.4-0.9l0.9-1.7l0.5-1.2c2-4.6,4.1-9.7,4.1-9.7l0.6-1.3c1-2.3,2.1-4.5,3.1-6.7
	c1-1.9,0.9-2,1.8-4c0.3-0.6,0.6-1.1,0.8-1.7h-0.1c0.4-0.9,0.9-1.6,1.3-2.5l0.5-0.8c1-1.2,1.8-3.2-0.1-4.1l-0.9-0.3
	c-1.7-0.4-4.3,0.1-5.1,1.1c-0.3,0.4-0.6,0.7-0.8,1c-1,1.3-1.5,3-1.9,4.6c-0.2,0.3-0.3,0.7-0.4,1c-0.3,0.9-1,1.7-1.5,3.2l-0.3,0.8
	c-1.6,4.1-2.9,8.4-5.2,12.2c-0.1,0.3-0.2,0.6-0.4,0.9l-0.4,1.1l-0.9,2.2l-0.5,1.1c-1,2.6-2.1,5.2-3.2,7.6l-0.3,0.8l-1.7,4.4
	l-0.3,0.7l-0.8,1.5l-0.4,0.9l-1.2,3.1h-0.1c-1.2-0.4-2.5-0.5-3.6-0.4c-0.7,0-1.2,0.1-1.9,0.2c-0.9,0.2-1.8,0.3-2.7,0.4
	c-2.3,0.3-4.7,0.3-7,0.3h-1.3l-2.7-0.4c0.3-0.7,0.6-1.3,0.8-2l0.4-1c0.2-0.4,0.3-0.8,0.4-1.1l1.5-4.4l0.3-1.1
	c0.1-0.3,0.2-0.7,0.4-1.1c0.3-1,0.6-1.8,0.8-2.8c0.2-0.4,0.3-0.9,0.5-1.3c0.2-0.4,0.4-0.9,0.5-1.2c1.3-4.1,3.2-7.9,4.7-12l0.4-1.4
	c0.7-2.4,1.3-4.9,2.4-7.2l0.5-1.2c1.1-3.3,2.4-7.4,6.3-8.1c0.4-0.2,0.6-0.6,0.7-1c0.3-0.5,0.3-1,0.2-1.5c-0.3-0.7-0.9-1.1-1.4-1.1
	c-0.3-0.1-0.7-0.1-1-0.1c-2.4,0.7-4.9,1.1-7.3,1.4c-1.9-0.4-3.8-0.3-5.7-0.3h-0.3l-2.9-0.3c-0.3,0-0.6,0-1-0.1
	c-2.4-0.2-4.8-0.7-7.2-1.1l-1.2-0.3c-1.7-0.5-3.3-1-5-1.2c-0.8-0.2-1.4-0.4-1.4-0.4c-1-0.3-1.9-0.5-2.9-0.7l-1.5-0.2
	c-2.1-0.5-4.2-0.8-6.4-0.8h-1.3c-1,0-2,0-3.1,0.1c-0.4,0-0.8,0-1.1,0.1c-2.3,0.1-4.5,0.4-6.7,1.1c-0.5,0.1-0.9,0.2-1.3,0.4
	c-2.1,0.8-4.2,1.7-6.2,2.7l-0.9,0.5l-0.9,0.4c-0.3,0.2-0.5,0.4-0.8,0.5c-2.3,1.3-4.1,3.2-5.6,5.3c-0.2,0.2-0.3,0.4-0.5,0.5l-1.1,1.6
	l-0.3,0.7c-0.2,0.2-0.3,0.4-0.4,0.6l-0.6,1.6l-0.4,1.7c-0.6,2.8-0.5,5.6,0.3,8.4c0.2,0.7,0.5,1.3,0.8,1.9c0.3,0.6,0.7,1.1,1.1,1.7
	l0.5,0.7l0.6,0.7c0.4,0.5,0.9,0.9,1.2,1.2l0.8,0.5c2.5,1.7,5.4,2.7,8.4,3.2c0.3,0.1,0.6,0.1,1,0.1c1,0.1,2,0.1,3-0.1
	c0.4,0,0.7-0.1,1-0.1c1.2-0.3,2.5-0.7,3.7-1.2c0.3-0.1,0.6-0.2,0.8-0.4c0.9-0.4,1.6-0.9,2.4-1.3l0.9-0.8c1.9-1.6,3.2-3.8,3.5-6.4
	V178c0.1-0.8,0-1.5-0.1-2.3c-0.1-0.9-0.5-1.6-0.9-2.3c-0.5-1-1-1.7-1.6-2.5c-0.6-0.7-1.4-1-2.2-1.2c-1-0.4-1.8-0.7-2.8-0.5
	c-1.3,0.2-1.8,1.5-1.5,2.7c0.1,0.3,0.2,0.5,0.4,0.7s0.4,0.4,0.6,0.4c2.3,0.3,5.2,1.1,5.3,3.8c0,0.3,0.1,0.7,0,1
	c-0.3,2.9-2.2,6-5.3,6.6c-0.3,0-0.5,0.1-0.8,0.1c-3.1,0.4-6.2,0-8.9-1.5l-1.2-0.8c0-0.1-0.1-0.1-0.1-0.2c-0.1,0-0.2-0.1-0.3-0.2
	c-0.2-0.1-0.4-0.3-0.6-0.5l-1.1-1.1c0,0-0.1-0.1-0.1-0.2c-0.1,0-0.2-0.1-0.2-0.1l-0.5-0.8c-0.3-0.4-0.5-0.9-0.7-1.2l-0.2-0.3
	c0,0,0-0.2-0.1-0.2l-0.3-0.9l-0.4-1.5v-0.3l-0.1-0.3v-2.6c0-0.1,0.1-0.3,0.1-0.3v-0.4c0.1-0.3,0.2-0.6,0.2-1
	c0.3-1.1,0.7-2.1,1.1-3.1c1.1-2.1,2.2-3.6,4.1-5.1c0.7-0.6,1.4-1.1,2.2-1.6l0.9-0.5l1.1-0.6c4.4-2.4,9.4-2.5,14.2-2.8h1
	c1.1,0,2.1,0.1,3.1,0.3c0.5,0,0.9,0.1,1.3,0.1c0,0,2.2,0.3,3.2,0.4c0.4,0.1,0.7,0.1,0.7,0.1c1.1,0.1,2.3,0.4,3.4,0.7
	c0.4,0.1,0.8,0.3,1.2,0.4l1.1,0.4c4.5,1.3,9.1,2.2,13.7,2.2h3.3c0.5,0.1,0.9,0.1,1.2,0.1h2.6c0.1,0,0.2,0,0.4,0.1h0.4l-0.5,0.7
	c-0.7,1.7-1.2,3.4-2.2,5L222,168c-0.2,0.4-0.3,0.8-0.4,1.1c-0.2,0.3-0.3,0.7-0.4,1.1l-0.5,1.2l-0.3,1l-0.4,1c-0.4,1-0.7,1.9-1.1,2.9
	l-0.4,1c-0.2,0.4-0.3,0.8-0.5,1.1c-0.1,0.4-0.2,0.8-0.4,1.1c-1.1,3.2-2.2,6.1-3.4,9.2l-0.6,1.3c-1.3,3.7-2.2,7.6-4.1,11.2l-0.6,1.5
	l-0.7,1.4c-1.5,2.8-2.8,5.6-4,8.6l-0.7,1.4l-3.5,6.8l-0.4,0.9L199,223l-0.5,1.2l-0.7,1.3c-0.4,0.9-0.9,1.7-1.2,2.7l-0.7,1.1
	c-0.2,0.5-0.5,0.9-0.7,1.2l-1,1.7c-1.7,2.8-3.6,5.5-5.8,7.9c-0.4,0.5-0.8,1-1.2,1.4l-1.2,1.6c-1.1,1.2-2.2,2.5-3.4,3.6
	c0,0-1.9,1.8-2.9,2.8c-0.4,0.3-0.6,0.5-0.6,0.5l-0.9,0.8c-3.8,2.9-8.5,4.4-13.3,4.6c-0.5-0.1-1-0.1-1.4-0.1h-1
	c-0.4-0.1-0.8-0.1-1.2-0.1l-2.4-0.5c-0.3,0-0.5-0.1-0.7-0.2c-0.6-0.1-1.1-0.2-1.5-0.4c-0.5-0.1-0.9-0.3-1.3-0.5
	c-1.4-0.5-2.7-1.3-4-2.1l-1.2-0.9c-0.9-0.6-1.5-1.2-2.3-2l-1.1-1.3l-1-1.5c-0.2-0.5-0.5-1-0.8-1.4c-0.5-1.1-1-2.3-1.3-3.4l-0.6-2.3
	c-0.1-0.7-0.3-1.4-0.3-2.2l-0.3-1.9c-0.2-2.3-0.2-4.6,0.2-6.8c0-0.6,0.1-1.1,0.3-1.7c0-0.6,0.1-1.1,0.2-1.6c0.1-0.6,0.2-1.1,0.4-1.7
	c0.1-0.4,0.3-0.9,0.5-1.2c1.1-2.8,3.1-5,5.2-6.9c0.4-0.5,0.9-0.9,1.3-1.2c1.3-1.1,2.8-2,4.3-2.8l1-0.5l1.4-0.6l1.4-0.4
	c1.8-0.4,3.7-0.4,5.5-0.1c0.5,0,1,0.1,1.4,0.2c0.9,0.4,1.8,0.8,2.8,1.3c0.3,0.1,0.6,0.3,0.9,0.5c0.9,0.4,1.5,1,2.2,1.5l0.9,1
	l0.9,1.1l0.9,1.1c2,2.4,2.2,6,0.8,8.8c-1.3,2.6-4.4,3.7-7.3,4.1l-0.9,0.5c-0.4,0.3-0.7,0.6-0.8,1.1c-0.2,1.3,0.7,2.5,1.9,2.7
	c0.4,0.1,0.7,0.1,1.1,0.1c2.4-0.1,4.6-1.2,6.3-2.8l0.7-0.7c0.3-0.3,0.6-0.7,0.8-1.1c0.3-0.3,0.5-0.7,0.8-1.1
	c1.2-2.3,2.1-4.8,2.1-7.4c0-0.5-0.1-1-0.1-1.4c-0.4-2.3-1.3-4.5-2.9-6.4l-1-1.2c-1.6-1.8-3.7-3.2-6.1-4.1c-0.3-0.2-0.7-0.3-1-0.4
	c-1.3-0.6-2.8-1-4.1-1.1l-1.1-0.2c-1.1-0.1-2.4-0.2-3.5-0.2l-1.5,0.2c-3.2,0.6-6.2,1.6-9,3.2l-1.6,1.1c-2.6,1.7-5.1,3.8-7,6.3
	c-0.3,0.3-0.5,0.6-0.7,0.9c-1.4,2-2.2,4.3-3,6.6l-0.3,0.9c-0.1,0.6-0.3,1.2-0.3,1.8c-0.2,0.5-0.3,1.1-0.3,1.5
	c-0.2,0.7-0.3,1.3-0.3,2.1c-0.2,1.6-0.2,3.3-0.2,5c0.1,0.6,0.1,1.1,0.1,1.7c0.2,6.2,2.8,12.1,7.1,16.7c0,0,0.3,0.4,0.7,0.7
	c0.3,0.4,0.7,0.7,0.7,0.7c0.3,0.4,0.7,0.7,1.1,1.1c3,2.5,6.5,3.7,10.3,4.5l1.2,0.2c0.5,0.1,1.1,0.2,1.5,0.2c1.4,0.3,2.8,0.4,4.2,0.3
	h1.4c1.3-0.1,2.6-0.3,3.9-0.5c0.3,0,0.7-0.1,1-0.1c4.7-0.9,9.2-2.8,13.3-5.3c0.5-0.2,0.9-0.5,1.2-0.8l2.5-1.7l1-0.9
	c1.1-0.9,1.9-1.8,2.9-2.8l1-0.9l1.1-0.9l0.7-0.7c0.7-0.7,1.3-1.3,1.9-2.1l1.1-1.1l1.9-2.4l0.8-1.1l0.7-1.3l0.8-1.3
	c2.2-3.6,4.1-7.4,5.8-11.2c0,0,0.3-0.7,0.7-1.3c1.1-2,2-4,3-6.1l0.6-1.2c0.5-1.2,1.1-2.5,1.6-3.7c0.1-0.7,0.3-1.2,0.6-1.8l1-1.8
	c0.2,0.1,0.4,0.2,0.7,0.2c0.3,0,0.6,0,1,0.1c0.3,0,0.7,0,1,0.1c1.9,0.2,3.8,0.3,5.7,0.1c1.1-0.1,2.5-0.2,3.6,0c1.3,0.1,2.7,0.1,4,0
	c0.7-0.1,1.3-0.1,2-0.1h1.2c-0.3,0.5-0.5,1-0.9,1.3l-0.4,0.9l-2.2,5.2c0,0-0.2,0.4-0.4,1c-0.6,1.1-1.4,3.2-2.1,5l-0.5,1.1
	c-1.1,2.7-2.3,5.6-2.8,8.6c-0.1,0.5-0.2,1-0.2,1.5c-0.1,0.5-0.1,1-0.1,1.4c0,0.5,0.1,1,0.1,1.4c0.2,3.8,3.6,6.7,7.4,6.1
	c0.4,0,0.8,0,1.1-0.1c4.6-0.7,8-4,11.4-6.9c0.4-0.2,0.7-0.5,1.1-0.8c1-0.8,1.9-1.6,2.8-2.6l0.6-0.7l1.1-1.1c0.7-0.9,1.5-1.8,2.2-2.7
	c-0.5,3.8-0.3,7.7,2.1,10.9c2.5,3.1,6.8,4,10.5,3.8c0.5,0,1.1-0.1,1.5-0.2h0.5c0.3-0.1,0.5-0.1,0.7-0.1l0.7-0.2
	c2.6-0.2,4.9-0.8,7.3-1.5c0.3-0.1,0.5-0.2,0.7-0.2c1.7-0.5,3.3-1.1,4.8-1.9l0.8-0.3c1.6-0.7,3.2-1.3,4.7-2.4l0.6-0.5
	c1.9-1.2,3.8-2.8,5.6-4.1l1-0.9l0.5-0.4c2-1.9,3.5-4.2,5.3-6.2l0.4-0.5c0.3-0.3,0.5-0.6,0.6-0.7c0,0.1-0.1,0.2-0.1,0.4l-0.6,1.2
	c-0.7,1.5-1.2,3-1.7,4.5l-0.4,1.1c-0.7,2.2-1.4,4.3-2.2,6.4l-0.5,1.1c-0.4,1-1.1,2.4-0.9,3.4c0,0.2,0.1,0.4,0.2,0.6
	c1.5,1,3.7,0.9,5.4,0.3c0.3,0,0.5-0.1,0.7-0.2c2.3-1,2.3-3.4,2.8-5.4l0.5-1.5l2.8-10.1l0.6-1.7l0.2-0.7c0.9-2.3,1.3-4.7,2.2-7
	l0.3-0.7c0.7-1.8,1.4-3.6,2.5-5.3c0.1-0.3,0.2-0.6,0.4-0.8c1.1-2.1,2.6-3.9,4.2-5.5l0.6-0.8c0.3-0.2,0.5-0.5,0.7-0.8
	c1.8-1.8,3.7-3.7,6.2-4.7c0.3-0.2,0.6-0.3,0.9-0.4c1.5-0.6,3.2-0.6,4.6,0.7l0.9,1c0.5,1.1,0.9,2.4,1.1,3.7l0.3,1.2
	c0.1,1.4,0.1,3-0.1,4.4c0,0.5-0.1,1-0.1,1.4c-1.1,4.6-2.1,9.3-3.7,13.7l-0.5,1.4c-1.1,2.9-2.1,5.7-3,8.7l-0.3,1.2
	c-0.6,2-1,4.2-0.3,6.2s2.6,2.9,4.6,2.7c2.6-0.4,5.1-1.7,7.3-3.2l0.4-0.3l0.5-0.4c1.4-1.1,3-1.9,4.2-3.2h-0.1c0.6-0.4,1.1-1,1.5-1.4
	c0.2-0.1,0.3-0.3,0.5-0.5l1-0.9l0.6-0.6l2.1-2.2l0.4-0.5c0.2-0.1,0.3-0.3,0.5-0.5c0.3-0.3,0.5-0.6,0.8-1c0,0.2-0.1,0.3-0.1,0.5
	l-0.2,1c-0.3,1.8-1,3.7-1.1,5.5v0.8c-0.1,2.6,1.3,5.3,3.7,6.4l0.8,0.3c0.3,0.2,0.6,0.3,1,0.4c0.4,0.1,0.7,0.1,1,0.1
	c1.1,0.1,2.2-0.1,3.2-0.4c2.6-0.8,4.9-2.4,7-3.9l2.3-1.7c0.4-0.4,0.8-0.7,1.1-1c1.4-1,2.7-2.1,3.8-3.3l0.6-0.7
	c1.2-1.2,2.3-2.5,3.3-3.8c-0.5,3.8-0.3,7.7,2.1,10.9c2.5,3.1,6.8,4,10.5,3.8c0.5,0,1-0.1,1.5-0.2h0.5c0.3-0.1,0.5-0.1,0.7-0.1
	l0.7-0.2c2.6-0.2,4.9-0.8,7.3-1.5c0.3-0.1,0.5-0.2,0.7-0.2c1.7-0.5,3.3-1.1,4.8-1.9l0.8-0.3c1.6-0.7,3.2-1.3,4.7-2.4l0.6-0.5
	c1.9-1.2,3.8-2.8,5.6-4.1l1-0.9l0.5-0.4c2-1.9,3.5-4.2,5.3-6.2l0.4-0.5c0.4-0.5,0.7-0.9,0.7-0.9c0.8-1.1,1.5-2.4,2.2-3.6l1.3-2.4
	l0.4-0.6l3.2-6.6C428.3,209.1,428.1,208.2,427.4,207.8z M266.1,210.9l2.3-3.9c0.8-1.2,1.4-2.6,2.3-3.7c1-1.1,1.9-2.2,3.1-3.1l3-2.2
	l1.2-1.1c0.6-0.6,1.3-0.9,2.1-1h0.1c0.6-0.1,1.1-0.2,1.6-0.2c2.2-0.1,2.7,2.6,3.1,4.2c0,0.5,0.1,1,0.1,1.4c0.1,2.8-1,5.6-2.2,8.1
	l-1,1.7c-0.7,1.1-1.3,2-2.2,3l-1,1.1l-1,0.9c-2.6,2.2-5.8,4-8.6,5l-3.3,1c-1.1,0.4-2.3,0.6-3.3,0.7l-2.9,0.2
	c0.8-1.8,1.6-3.5,2.5-5.3C263.3,215.3,264.7,213.2,266.1,210.9z M388.1,210.9l2.3-3.9c0.8-1.2,1.4-2.6,2.3-3.7
	c1-1.1,1.9-2.2,3.1-3.1l3-2.2l1.2-1.1c0.6-0.6,1.3-0.9,2.1-1h0.1c0.6-0.1,1.1-0.2,1.6-0.2c2.2-0.1,2.7,2.6,3.1,4.2
	c0,0.5,0.1,1,0.1,1.4c0.1,2.8-1,5.6-2.2,8.1l-1,1.7c-0.7,1.1-1.3,2-2.2,3l-1,1.1l-1,0.9c-2.6,2.2-5.8,4-8.6,5l-3.3,1
	c-1.1,0.4-2.3,0.6-3.3,0.7l-2.9,0.2c0.8-1.8,1.6-3.5,2.5-5.3C385.3,215.3,386.8,213.2,388.1,210.9z"/>
<path class="st1" d="M280.4,360.3c-30.2,0-59.3-9.1-84.1-26.2c-24.2-16.7-42.8-40-53.6-67.2c-0.2-0.5,0-1,0.5-1.2s1,0,1.2,0.5
	c10.7,26.9,29,49.8,52.9,66.4c24.5,16.9,53.2,25.8,83,25.8c35,0,68.9-12.6,95.3-35.3c26.2-22.6,43.6-53.7,49.1-87.6
	c0.1-0.5,0.6-0.9,1.1-0.8c0.5,0.1,0.9,0.6,0.8,1.1c-5.5,34.4-23.2,65.9-49.7,88.8C350.2,347.6,315.9,360.3,280.4,360.3z"/>
<path class="st1" d="M205.6,271.5c-1.3,0-2.6-0.1-3.8-0.4c-0.4-0.1-0.8-0.3-1.3-0.3c-0.8-0.2-1.4-0.3-2-0.3c0.1-0.1,0.3-0.1,0.4-0.1
	s0.2-0.1,0.3-0.1h0.4c0.4-0.1,0.8-0.1,1.1-0.1c0.8,0,1.5,0.1,2.4,0.2c0.1,0.1,0.3,0.1,0.3,0.1l0.1,0.1h0.1c1,0.4,2,0.6,2.9,0.9
	L205.6,271.5L205.6,271.5z M360.4,270.7c-0.6,0.1-1,0.2-1.3,0.3c-1.2,0.3-2.5,0.4-3.8,0.4h-0.9c0.9-0.3,1.9-0.5,2.9-0.9h0.1l0.1-0.1
	c0.1-0.1,0.2-0.1,0.3-0.1c0.9-0.1,1.7-0.2,2.4-0.2c0.4,0,0.8,0,1.1,0.1h0.4c0.1,0,0.2,0.1,0.3,0.1c0.1,0,0.3,0.1,0.4,0.1
	C361.8,270.5,361.1,270.5,360.4,270.7 M268.1,270.1c0.1-0.2,0.3-0.4,0.4-0.6l0.1-0.1l0.1-0.2l0.4-0.4c0.3-0.3,0.5-0.4,0.7-0.7h0.1
	c0.1-0.1,0.1-0.1,0.2-0.1l0.4-0.3l0.4-0.2h0.1c0,0,0.1,0,0.1-0.1c0.1,0,0.1,0,0.3-0.1l0.4-0.1c0.1,0,0.2,0,0.3-0.1h0.2
	c0.2,0,0.3-0.1,0.4-0.1h0.1c1.3,0,2.2,0.5,2.9,1.5l0.4,0.4c0.3,0.3,0.6,0.5,0.9,0.7l0.3,0.2C275.5,269.9,273.9,270,268.1,270.1
	 M299.7,272.6l-0.4,0.4l-0.2,0.1l-1,0.6c-0.2,0.1-0.3,0.1-0.4,0.3h-0.1l-0.3,0.1l-0.5,0.1c-0.2,0.1-0.4,0.1-0.5,0.1
	c-0.4,0.1-0.8,0.1-1.1,0.1c-1.3,0-2.6-0.4-3.7-1.1l-0.3-0.3c-0.3-0.1-0.4-0.3-0.6-0.4l-0.8-0.6h2.8c1,0,2-0.1,2.9-0.1h2.9
	c0.6,0.1,1.3,0.1,1.9,0.1C300.1,272.3,299.9,272.5,299.7,272.6 M290.1,275.1c-0.9-0.1-1.8-0.1-2.5-0.3c-0.2-0.1-0.3-0.1-0.4-0.1
	l-1.3-0.6c-0.3-0.1-0.5-0.3-0.8-0.5l-0.4-0.4c-0.5-0.5-1.1-1-3.5-2.9l-0.2-0.1h-0.1l-2.6-1.9l-0.1-0.1c-0.1,0-0.1-0.1-0.2-0.1
	l-0.8-0.6l-0.3-0.2c-0.5-0.7-1.2-1.3-1.9-1.6c0.4-0.1,0.9-0.1,1.3-0.1c0.7,0,1.3,0.1,1.8,0.3l0.5,0.3c0.5,0.3,1,0.6,1.5,1l0.3,0.2
	c0.1,0.1,0.1,0.1,0.1,0.1l1.9,1.5c0.6,0.4,1.2,0.8,5.7,4.8c0.3,0.3,0.6,0.4,0.8,0.6l0.7,0.6L290.1,275.1L290.1,275.1z M368.4,272.4
	c-0.1-2.2-3.7-3.3-6-4.1c-0.3,0-0.6-0.1-0.8-0.1c-0.4-0.1-0.9-0.1-1.4-0.1c-1,0-1.9,0.1-2.9,0.3c-0.3,0.1-0.5,0.1-0.8,0.3
	c-2.3,0.8-4.7,1.4-7.1,1.4c-0.4,0-0.7,0-1.1-0.1c-2.3,0-4.5-0.1-6.8-0.1c-1.1,0-27.1,0.1-27.1,0.1c-0.4,0.1-0.9,0.1-1.3,0.1
	c-2,0.1-4.8,0.2-6.8,0.3c-0.4,0-0.8,0-1.3-0.1c-2.2-0.1-4.4-0.3-6.6-0.3h-3.6c-1.8-0.1-3.6-0.2-5.4-0.2h-2.3l-0.5-0.4
	c-1.4-1.4-3.1-2.4-4.7-3.7l-0.4-0.3c-0.6-0.4-1.2-0.8-1.8-1.1c-0.3-0.1-0.4-0.2-0.6-0.3c-0.8-0.4-1.7-0.5-2.6-0.5
	c-1.4,0-2.9,0.4-4.2,0.9l-0.6,0.3c-0.9,0.4-1.8,1-2.7,1.6l-0.2,0.2c-0.6,0.5-1.2,1.1-1.7,1.7l-0.4,0.5c-0.2,0.6-0.7,1.1-1,1.2
	c-1.7,0.5-3.6,0.4-5.4,0.4h-0.6c-0.2,0-0.4,0-0.6-0.1h-0.6l-3.7-0.2c-0.4,0-0.1,0-0.6-0.1c0,0-33.6-0.1-34.8-0.1
	c-2.2,0-4.5,0.1-6.8,0.1c-0.4,0.1-0.7,0.1-1.1,0.1c-2.4,0-4.8-0.6-7.1-1.4c-0.3-0.1-0.5-0.2-0.8-0.3c-1-0.2-1.9-0.3-2.9-0.3
	c-0.4,0-1,0-1.4,0.1c-0.3,0-0.6,0.1-0.8,0.1c-2.3,0.8-5.9,1.9-6,4.1c0,0.5,0.3,0.6,0.7,0.6c1,0,2.6-0.6,3.7-0.6h1.2
	c0.7,0,1.3,0,2,0.2c0.4,0.1,0.8,0.2,1.2,0.3c1.4,0.4,2.9,0.5,4.3,0.5c2.2,0,4.3-0.3,6.3-1l1.1-0.4c1.3-0.3,2.6-0.3,3.9-0.3
	c1.4,0,2.9,0.1,4.3,0.2c0.4,0.1,0.8,0.1,1.2,0.1c0.8,0.1,30.1,0.1,32.5,0.1h1c0,0,2.8,0.1,4.2,0.1h2.9c0.1,0,0.3,0,0.5-0.1h0.6
	c1.5,0,3.1-0.1,4.6-0.1h2.9c1,0.1,2,0.1,2.9,0.1h5.6c1,0.8,2.1,1.7,3.1,2.6l0.4,0.4c0.3,0.3,0.7,0.6,1.1,0.8c0.5,0.3,1,0.5,1.6,0.7
	l0.5,0.2c1.2,0.3,2.5,0.3,3.8,0.3c0.2,0,0.4,0.1,0.6,0.1h0.9c0.3,0.1,0.6,0.1,1,0.1c1.1,0,2.2-0.2,3.2-0.7l0.5-0.2
	c0.6-0.2,1.1-0.3,1.6-0.6c0.4-0.2,0.8-0.4,1.2-0.6c1.1-0.8,2.1-1.7,2.9-2.9c0.8,0,1.5,0.1,2.3,0.1h1.3l5-0.1h1.7
	c2.1,0,24.8-0.1,25.5-0.1c0.4,0,0.8,0,1.2-0.1c1.5-0.1,2.9-0.2,4.3-0.2c1.3,0,2.6,0.1,3.8,0.3l1.1,0.4c2,0.7,4.2,1,6.3,1
	c1.5,0,2.9-0.1,4.3-0.5c0.4-0.1,0.8-0.3,1.2-0.3c0.6-0.2,1.3-0.2,2-0.2h1.3c1.1,0,2.7,0.6,3.6,0.6
	C368.1,273.1,368.5,272.9,368.4,272.4"/>
<path class="st1" d="M372.1,141.7c-0.2-0.1-0.5-0.2-0.7,0c-0.1,0-0.2,0.1-0.2,0.2c-0.5,1-1,2-1.5,3.1l-0.2,0.4l-0.2,0.4
	c-0.5,1-1.1,2.1-1.8,3c-0.1,0.1-0.2,0.3-0.3,0.4l-0.2,0.3l-0.2,0.2c-0.4,0.5-0.8,0.8-1.2,1.2l-0.3,0.2c-0.2,0.1-0.3,0.3-0.5,0.4
	c0,0.1-0.1,0.1-0.2,0.2c-0.9,0.6-1.8,1.3-2.8,1.7c-0.1,0-0.2,0.1-0.4,0.1c-1.1,0.4-2.3,0.7-3.5,0.8c-0.1,0-0.3,0-0.4,0
	c-0.2-0.3-0.4-0.7-0.6-1c-0.1-0.2-0.2-0.3-0.3-0.5c0,0,0-0.1-0.1-0.2c-0.6-1-1.6-1.9-2.7-2.3c-0.1,0-0.2,0-0.3,0c0.1,0,0.2,0,0.3,0
	c1-0.1,1.7-0.9,2.6-1.4c0.1-0.1,0.2-0.1,0.2-0.1l1.6-0.8c0,0,0.2-0.1,0.4-0.2c0.5-0.4,1-0.8,1.5-1.2l0.4-0.3l0.4-0.4
	c1.3-1.4,2.6-2.8,3.4-4.5l0.3-0.5l0.3-0.5c0.6-0.8,1.1-1.7,1.6-2.5l0.2-0.5c0.3-0.7,0.6-1.3,0.8-2l0.1-0.6c0.1-0.5,0.2-0.9,0.2-1.4
	c0.1-1.8,0.4-3.8-0.3-5.6l-0.4-0.9c-0.1-0.3-0.3-0.6-0.5-0.8c-0.1,0-0.1-0.1-0.2-0.2c-0.2-0.2-0.4-0.4-0.6-0.6
	c-0.1-0.1-0.3-0.2-0.4-0.3c-1-0.5-2.1-0.8-3.3-0.6l-0.5,0.2c-1.3,0.6-2.3,1.9-2.9,3.1l-0.2,0.4l-0.8,1.7l-0.2,0.6
	c-0.4,0.9-0.8,1.9-1.2,2.8c-0.1,0.2-0.2,0.4-0.2,0.6c-0.4,0.9-0.8,1.8-1.1,2.7l-0.1,0.5c-0.1,0.5-0.3,0.9-0.4,1.4
	c-0.1,0.2-0.2,0.4-0.2,0.7c-0.3,0.5-0.4,1-0.6,1.6c-0.2,0.5-0.3,1-0.5,1.5c-0.5,1-1,2-1.5,3l-0.2,0.4l-0.2,0.4
	c-0.4,0.8-0.8,1.6-1.4,2.2l-0.2,0.2l-0.1,0.2l-0.2,0.3l-0.3,0.3c-0.8,0.9-1.7,1.6-2.9,1.9l-0.4,0.1c-0.3,0.1-0.7,0.1-1,0.1h-0.6
	c-0.1,0-0.2,0-0.4,0c-0.1,0-0.2,0-0.3,0s-0.2,0-0.4,0l-0.3-0.1c0,0-0.1,0-0.1-0.1l-0.2-0.1c0,0-0.1,0-0.1-0.1c0,0,0,0-0.1-0.1
	l0.3-0.4c0-0.1,0.1-0.2,0.2-0.3c0.6-1,1-2.2,1.5-3.3c0-0.2,0.1-0.4,0.2-0.6l0.7-2l0.2-0.4c0.4-0.8,0.7-1.7,0.8-2.7
	c0.3-0.7,0.4-1.4,0.4-2.2c0-0.5,0-1.1,0-1.6c0-0.1,0-0.2,0-0.3l-0.1-0.3c0-0.1,0-0.2-0.1-0.3c-0.6-1.2-1.5-2.3-2.9-2.6
	c-0.1,0-0.2,0-0.4,0c-0.3,0-0.6-0.1-0.9-0.1c-0.3,0-0.6,0-0.8,0c-2.4,0-4.4,1.3-6.1,2.7l-0.4,0.3l-0.7,0.6l-0.3,0.3
	c-0.6,0.7-1.3,1.3-2,2l-0.3,0.3l-0.8,0.9c-0.1,0.1-0.2,0.2-0.2,0.3l-0.4,0.5c-0.1,0.2-0.2,0.3-0.4,0.5c-0.1,0.1-0.1,0.1-0.2,0.2
	c0,0,0,0.1-0.1,0.1c-0.2,0.3-0.4,0.6-0.6,1c-0.3,0.6-0.6,1.2-0.9,1.8l-0.4,0.9l0,0l-0.8,1.6c-0.1,0.1-0.1,0.3-0.2,0.4
	c-0.5,0.7-0.9,1.4-1.4,2.1c-0.1,0.1-0.2,0.3-0.3,0.4l-0.3,0.4c-0.1,0.1-0.2,0.3-0.3,0.4l-0.5,0.7c-0.1,0.1-0.2,0.2-0.3,0.3l-0.3,0.3
	c-0.8,0.8-1.6,1.6-2.4,2.3l-0.5,0.4c-0.2,0.1-0.3,0.3-0.5,0.4l-0.5,0.4c-0.7,0.4-1.3,1-2.1,1.4c-0.2,0.1-0.4,0.2-0.6,0.2
	c-0.4,0.1-0.8,0.2-1.1,0c-0.2,0-0.4-0.1-0.5-0.3c-1.4-1.4-0.1-3.3,0.2-4.9c0.2-0.8,0.6-1.5,1-2.3c0-0.1,0.1-0.3,0.2-0.4
	c0-0.1,0.1-0.3,0.2-0.4c0.3-0.6,0.6-1.2,0.9-1.7c0-0.1,0.1-0.3,0.2-0.4l1.1-2.5c0.6-1.4,1.1-2.8,1.7-4.2l0.6-1.2l0.2-0.4
	c0.1-0.1,0.1-0.3,0.2-0.4c0.5-1.3,1.1-2.5,1.7-3.8c0.1-0.1,0.1-0.3,0.2-0.4l0.4-0.8l0.2-0.6c1-2.3,2-4.8,2-4.8l0.3-0.7
	c0.5-1.1,1-2.2,1.5-3.3c0.5-0.9,0.4-1,0.9-2c0.1-0.3,0.3-0.6,0.4-0.8l0,0c0.2-0.4,0.4-0.8,0.7-1.2l0.2-0.4c0.5-0.6,0.9-1.6,0-2
	l-0.4-0.1c-0.8-0.2-2.1,0-2.5,0.5c-0.1,0.2-0.3,0.3-0.4,0.5c-0.5,0.7-0.8,1.5-0.9,2.3c-0.1,0.1-0.1,0.3-0.2,0.5
	c-0.1,0.4-0.5,0.8-0.8,1.6l-0.1,0.4c-0.8,2-1.4,4.2-2.5,6c0,0.1-0.1,0.3-0.2,0.4l-0.2,0.5l-0.4,1.1l-0.2,0.6c-0.5,1.3-1,2.5-1.6,3.8
	l-0.1,0.4l-0.8,2.2l-0.1,0.3l-0.4,0.8l-0.2,0.4l-0.6,1.5l0,0c-0.6-0.2-1.2-0.2-1.8-0.2c-0.3,0-0.6,0-0.9,0.1
	c-0.4,0.1-0.9,0.1-1.3,0.2c-1.1,0.1-2.3,0.1-3.4,0.1h-0.7l-1.3-0.2c0.1-0.3,0.3-0.7,0.4-1l0.2-0.5c0.1-0.2,0.1-0.4,0.2-0.5l0.8-2.2
	l0.1-0.6c0-0.1,0.1-0.3,0.2-0.5c0.1-0.5,0.3-0.9,0.4-1.4c0.1-0.2,0.1-0.4,0.2-0.7c0.1-0.2,0.2-0.4,0.2-0.6c0.7-2,1.6-3.9,2.3-5.9
	l0.2-0.7c0.3-1.2,0.7-2.4,1.2-3.5l0.2-0.6c0.5-1.7,1.2-3.6,3.1-4c0.2-0.1,0.3-0.3,0.3-0.5c0.1-0.2,0.1-0.5,0.1-0.8
	c-0.1-0.3-0.4-0.5-0.7-0.6c-0.1,0-0.3,0-0.5,0c-1.2,0.3-2.4,0.6-3.6,0.7c-0.9-0.2-1.9-0.1-2.8-0.1h-0.1l-1.4-0.1c-0.1,0-0.3,0-0.5,0
	c-1.2-0.1-2.4-0.3-3.5-0.6l-0.6-0.1c-0.8-0.2-1.7-0.5-2.5-0.6c-0.4-0.1-0.7-0.2-0.7-0.2c-0.5-0.1-0.9-0.2-1.4-0.3l-0.8-0.1
	c-1-0.2-2.1-0.4-3.2-0.4H294c-0.5,0-1,0-1.5,0c-0.2,0-0.4,0-0.5,0c-1.1,0-2.2,0.2-3.3,0.5c-0.2,0-0.4,0.1-0.7,0.2
	c-1,0.4-2.1,0.8-3.1,1.3l-0.4,0.2l-0.4,0.2c-0.1,0.1-0.2,0.2-0.4,0.2c-0.1,0.1-0.2,0.1-0.3,0.2c-1,0.5-2.5,1.7-3.8,4.1
	c0,0-0.9,1.7-2,4c-0.2,0.3-0.3,0.6-0.3,0.8c0,0,0,0.1-0.1,0.1l-0.2,0.4l-0.2,0.4c-0.4,0.8-0.9,1.6-1.4,2.3l-0.2,0.3
	c-0.5,0.9-1.2,1.6-1.8,2.3l-0.2,0.2c-0.4,0.4-0.7,0.9-1.1,1.3l-0.8,0.8c-0.1,0.1-0.2,0.2-0.3,0.2l-0.3,0.3l-0.5,0.4l-0.2,0.2
	c-0.1,0.1-0.2,0.1-0.3,0.2c-0.1,0.1-0.2,0.1-0.3,0.2l-0.2,0.2l-1.1,0.6l-0.3,0.1c0,0,0,0-0.1,0s-0.1,0-0.2,0
	c-0.3,0.1-0.5,0.1-0.7,0.1h-0.5c0,0,0,0-0.1,0h-0.1l0,0l0,0l0,0V137l0,0v-0.1c0-0.2,0-0.4,0-0.6c0,0.1,0-0.1,0-0.2
	c0-0.1,0-0.3,0-0.4c0-0.4,0.1-0.7,0.3-1c0.2-0.6,0.4-1.1,0.6-1.7l0.6-1.6l0.2-0.5c0.1-0.3,0.2-0.7,0.4-1c0.9-1.6,1.2-3.4,1.7-5.1
	c0-0.2,0-0.5,0.1-0.7c0.2-1.2,0.3-2.4,0.1-3.6l-0.1-0.6l-0.1-0.3l-0.1-0.3c-0.4-1.3-1.2-2.4-2.5-2.9c-0.1,0-0.2,0-0.4,0
	c-1.2-0.2-2.5,0.1-3.5,0.7l-0.4,0.2c-1.1,0.9-2.2,1.8-3,3c-0.1,0.1-0.2,0.3-0.3,0.4l-0.3,0.4l-0.3,0.3L259,122c0-0.4,0-0.9-0.1-1.3
	l-0.1-0.6c-0.2-0.6-0.5-1.2-0.8-1.7l-0.4-0.6c-0.3-0.3-0.5-0.6-0.9-0.8l-0.3-0.2c-1.4-0.5-2.9-0.2-4.2,0.5l-0.4,0.2
	c-0.5,0.4-0.9,0.8-1.4,1.2c-0.1,0.1-0.2,0.2-0.3,0.3c-0.5,0.4-0.9,0.9-1.3,1.4l-0.5,0.8l-0.1,0.2l0.1-0.5c0-0.2,0.1-0.3,0.2-0.5
	c0.1-0.5,0.3-0.9,0.5-1.3c0.1-0.3,0.2-0.5,0.3-0.9c0.2-0.5,0.4-1.1,0.5-1.7c0.1-0.4-0.5-0.5-0.9-0.5c-0.1,0-0.2,0-0.4,0h-1.3
	c-0.6,0.1-1.7,0.5-1.4,1.2c0.2,0.6,0.4,1.1,0.1,1.7c0,0.1,0,0.3-0.1,0.4c-0.2,0.7-0.4,1.4-0.7,2.2l-0.1,0.4l-0.1,0.4
	c-0.2,0.5-0.3,1-0.5,1.6c-0.5,0.9-0.9,1.9-1.4,2.9l-0.2,0.4l-0.2,0.4c-0.4,0.8-0.8,1.5-1.4,2.1l-0.2,0.2l-0.1,0.2l-0.2,0.3l-0.3,0.3
	c-0.8,0.9-1.7,1.5-2.7,1.8l-0.4,0.1c-0.3,0.1-0.7,0.1-1,0.1h-0.5c-0.1,0-0.2,0-0.4,0c-0.1,0-0.2,0-0.3,0s-0.2,0-0.4,0l-0.3-0.1
	c0,0-0.1,0-0.1-0.1l-0.2-0.1c0,0-0.1,0-0.1-0.1c0,0,0,0-0.1-0.1l0.3-0.4c0-0.1,0.1-0.2,0.2-0.3c0.6-1,0.9-2.1,1.4-3.2
	c0-0.2,0.1-0.4,0.2-0.6l0.7-1.9l0.2-0.4c0.4-0.8,0.7-1.7,0.8-2.6c0.3-0.6,0.4-1.4,0.4-2.1c0-0.5,0-1,0-1.5c0-0.1,0-0.2,0-0.3
	l-0.1-0.3c0-0.1,0-0.2-0.1-0.3c-0.5-1.1-1.4-2.2-2.7-2.5c-0.1,0-0.2,0-0.4,0c-0.3,0-0.6-0.1-0.9-0.1c-0.3,0-0.6,0-0.8,0
	c-2.3,0-4.2,1.2-5.9,2.6l-0.4,0.3l-0.6,0.5l-0.3,0.3c-0.6,0.7-1.3,1.3-1.9,1.9l-0.3,0.3l-0.8,0.9c-0.1,0.1-0.2,0.2-0.2,0.3l-0.4,0.5
	c-0.1,0.2-0.2,0.3-0.3,0.5c-0.1,0-0.1,0.1-0.2,0.2v0.1c-0.2,0.3-0.4,0.6-0.6,0.9c-0.3,0.6-0.6,1.2-0.9,1.8l-0.3,0.8l0,0l-0.9,1.6
	c0,0.1-0.1,0.2-0.2,0.2c-0.6,0.9-1.3,1.8-2,2.6c-0.1,0.1-0.1,0.2-0.2,0.2l-0.7,0.7l-0.3,0.2l-0.3,0.2c0,0-0.1,0.1-0.3,0.2
	c-0.1,0-0.2,0.1-0.3,0.2c-0.8,0.6-1.6,1.1-2.4,1.6l-0.5,0.2l-0.2,0.1c0,0-0.1,0-0.2,0.1c-0.1,0-0.1,0-0.2,0l-0.2,0.1l-0.4,0.1
	c-0.1,0-0.1,0-0.2,0c-0.5,0-0.9,0-1.4-0.2c0.1-0.1,0.2-0.2,0.2-0.3l0.1-0.1c0,0,0-0.1,0.1-0.1c0,0,0,0,0,0.1l0.7-1.1
	c0-0.1,0.1-0.1,0.1-0.2l0.1-0.2c0,0,0-0.1,0.1-0.1l0.3-0.5c0-0.1,0.1-0.2,0.2-0.3l0.2-0.3l0.1-0.2c0.3-0.4,0.6-0.8,0.8-1.3
	c0.1-0.1,0.1-0.2,0.2-0.3c0.2-0.5,0.5-0.9,0.8-1.4l0.2-0.6c0.1-0.4,0.3-0.8,0.5-1.2l0.1-0.3l0.4-1.1c0.3-0.7,0.5-1.4,0.6-2.2
	c0-0.1,0.1-0.2,0.1-0.3c0.5-1.3,0.5-2.6,0.7-3.9v-0.4c0-0.4,0-0.8-0.1-1.1l-0.1-0.4c-0.3-0.7-0.9-1.3-1.6-1.5l-0.4-0.1
	c-0.5,0-1,0-1.5,0c-0.1,0-0.2,0-0.2,0.1l-0.2,0.1c-1.2,0.4-2,1.4-2.6,2.4l-0.1,0.2l-0.7,1.2l-0.1,0.3c-0.2,0.3-0.3,0.7-0.4,1.1
	c0,0.1,0,0.1,0,0.2l-0.4,1c0,0.1,0,0.2-0.1,0.3l-0.1,0.3l-0.1,0.3c-0.3,1.2-0.5,2.4-0.8,3.6l-0.1,0.3c-0.1,0.5-0.2,1.1-0.3,1.7
	c-0.1,0.8-0.2,1.5-0.2,2.3v1.7c0,0.1,0,0.1,0,0.2c0.2,0.6,0.4,1.2,0.8,1.8l0.5,0.5l-0.1,0.1c0,0.1-0.1,0.1-0.2,0.2l-0.6,0.6l0,0
	l-0.1,0.1c-0.4,0.2-0.7,0.4-1,0.6l-0.2,0.1c-0.5,0.3-1,0.6-1.5,0.8l-0.5,0.1l-0.6,0.1h-0.2c-0.4,0-0.7,0.1-1,0h-0.4
	c-0.5,0-0.9-0.2-1.4-0.4c0,0-0.1-0.1-0.2-0.1c-0.5-0.3-0.9-0.9-1.3-1.4c0-0.1,0-0.1,0-0.2c0,0,0-0.1,0-0.2s0-0.1,0-0.2
	c0.2-0.7,0-1.4,0.3-2c0-0.1,0-0.2,0-0.2c0.1-0.4,0.2-0.7,0.2-1.1l0.1-0.5l0.5-1.4l0.1-0.3c0-0.1,0-0.2,0.1-0.3l0.1-0.3
	c0.3-0.8,0.6-1.5,0.9-2.3l0.2-0.4l0.1-0.3c0-0.1,0-0.1,0-0.1c0.5-0.8,0.7-1.6,1-2.5l0.1-0.2l0.5-1.4c0.6-1.5,1.3-3.1,1.7-3.7
	l0.2-0.3l0.2-0.4c0.5-0.8,0.7-2.2-0.5-2.3h-0.3c-0.1,0-0.2,0-0.4,0c-0.5,0-0.9,0-1.4,0.1c-0.6,0-1.2-0.1-1.8,0l0,0
	c-0.3,0-0.6,0-0.9,0.1c-0.1,0-0.2,0-0.3,0.1c-0.6,0.3-0.9,1.3-0.5,1.9c0.1,0.1,0.2,0.2,0.3,0.2c0.5,0.3,1,0.2,1.6,0.1
	c-0.2,0.5-0.4,1-0.6,1.5l-0.1,0.4l-0.9,3.2l-0.1,0.2c-0.2,1-0.6,2-0.9,3l-0.1,0.4c-0.3,1-0.6,2-0.9,3c0,0.1-0.1,0.2-0.1,0.3
	c0,0,0,0.1-0.1,0.2c-0.2,1.1-0.6,2.1-0.7,3.2c0,0.1,0,0.2,0,0.3c-0.1,0.5-0.1,1.1,0,1.6v0.4l0.1,0.3c0,0.1,0,0.2,0,0.3s0,0.2,0,0.3
	c0.1,0.4,0.2,0.8,0.4,1.1l0.2,0.3c0.6,0.7,1.3,1.1,2.2,1.4c0.1,0,0.2,0,0.4,0.1c0.1,0,0.2,0,0.3,0c0.9,0.1,1.7,0,2.6-0.1h0.2
	c0.7-0.1,1.4-0.4,2.2-0.5l0.2-0.1c0.4-0.1,0.7-0.3,1-0.5l0.2-0.1c0.3-0.1,0.5-0.2,0.7-0.4l0.1-0.1l0.2-0.1l0.2-0.1
	c0.5-0.4,1-0.8,1.4-1.2c0,0,0-0.1,0.1-0.1l0.1-0.1l0,0c0.1,0.1,0.3,0.1,0.5,0.2h0.1c0.6,0.1,1.3,0.3,1.9,0.1c0.1,0,0.1,0,0.2,0
	s0.2,0,0.2,0c0.8-0.1,1.6-0.4,2.3-0.9c0,0,0.1,0,0.2,0l0.1-0.1l0.2-0.1c0.4-0.2,0.8-0.5,1.1-0.7l0.3-0.2l0.7-0.6l0.3-0.2l0.5-0.4
	l0.2-0.1l1.1-1.1c0.2-0.3,0.5-0.5,0.7-0.8c0,0.1-0.1,0.2-0.1,0.3c-0.1,0.3-0.1,0.6-0.2,0.9l-0.1,0.5c0,1.7,0.4,3.6,1.7,4.9l0.3,0.3
	c0.2,0.2,0.5,0.3,0.7,0.5c0.1,0.1,0.2,0.1,0.4,0.2c0.4,0.1,0.7,0.3,1.1,0.4l0.4,0.1h0.5c0.2,0,0.3,0,0.5,0c0.7,0.1,1.4,0,2-0.3l0,0
	c1.4-0.2,2.9-0.7,3.9-1.8c0-0.1,0.1-0.2,0.2-0.3c0.3-0.3,0.5-0.6,0.8-0.9l0.3-0.3c0.6-0.9,1.4-1.7,1.9-2.5c0-0.1,0.1-0.2,0.2-0.3
	l0.2-0.2c0.6,0.4,1.3,0.5,2,0.6c0.2,0,0.5,0,0.6,0h0.4c0.2,0,0.4,0,0.6,0c0.1,0,0.2,0,0.3,0c0.4-0.1,0.7-0.2,1-0.3l0.4-0.1
	c1.2-0.4,2-1.3,2.9-2.1l0.3-0.3l0.5-0.5l0.2-0.3c0.1-0.1,0.1-0.2,0.2-0.3c0,0.1,0,0.1-0.1,0.2c0,0.2-0.1,0.4-0.2,0.6l-0.3,0.6
	c-0.3,0.7-0.6,1.4-0.8,2.1l-0.2,0.5c-0.3,1-0.7,2-1,3l-0.2,0.5c-0.3,0.7-0.9,2,0.3,2.3c0.1,0,0.3,0.1,0.5,0.1c0.6,0,1.3-0.2,1.8-0.4
	c1.1-0.5,1.1-1.6,1.3-2.6l0.2-0.7l1.3-4.8l0.3-0.8l0.1-0.3l0.1-0.3c0-0.1,0.1-0.2,0.1-0.3c0.3-0.9,0.4-1.8,0.7-2.7l0.1-0.3
	c0.3-0.7,0.5-1.4,0.7-2.2l0.1-0.3l0.2-0.5v-0.1c0.7-0.7,1.2-1.6,1.8-2.3c0.1-0.1,0.2-0.2,0.4-0.4c0.1-0.2,0.3-0.4,0.5-0.5
	c0.4-0.3,0.8-0.6,1.1-1l0.3-0.3c0.3-0.3,0.6-0.5,0.9-0.7c0.1-0.1,0.2-0.1,0.3-0.2c0.8-0.3,1.8-0.1,2.3,0.7l0.1,0.3
	c0.2,0.5,0.3,0.9,0.4,1.5l0.1,0.6c0,0.7,0,1.4,0,2.1c0,0.2,0,0.5,0,0.7c-0.5,2.2-1,4.4-1.8,6.4l-0.2,0.7c-0.3,0.8-0.6,1.6-0.9,2.4
	l-0.1,0.4c-0.1,0.3-0.2,0.5-0.3,0.8c0,0.1,0,0.2-0.1,0.3l-0.3,1.1l-0.1,0.4c-0.2,0.9-1.2,1.9-0.5,2.8c0.3,0.4,0.7,0.4,1.2,0.3
	c0.1,0,0.3,0,0.4,0h0.3c1.2-0.1,1.1-2,1.5-2.9c0-0.1,0.1-0.2,0.1-0.3l0.1-0.3l0.1-0.3c0.1-0.3,0.2-0.6,0.3-0.9
	c0.1-0.4,0.3-0.9,0.5-1.2l0.1-0.3c0-0.1,0.1-0.2,0.1-0.3l0.6-1.6l0.2-0.5l0.1-0.5c0-0.1,0.1-0.2,0.1-0.3c0.5-1,0.9-2,1.2-3.1
	c0-0.1,0.1-0.3,0.1-0.4l0.5-1.9c0-0.2,0-0.5,0.1-0.7l0.1-0.5c0.1-0.1,0.2-0.2,0.4-0.4c0-0.1,0.1-0.2,0.2-0.4
	c0.4-0.5,0.8-1.1,1.3-1.6l0.3-0.3l0.8-0.9l0.3-0.3c0.4-0.5,0.8-0.9,1.3-1.2l0.2-0.1l0.4-0.2c0.8-0.3,1.8-0.1,2.3,0.7l0.1,0.3
	c0.2,0.5,0.3,0.9,0.4,1.5l0.1,0.6c0,0.7,0,1.4,0,2.1c0,0.2,0,0.5,0,0.7c-0.5,2.2-1,4.4-1.8,6.4l-0.2,0.7c-0.5,1.4-1,2.7-1.4,4.1
	l-0.1,0.6c-0.3,0.9-0.5,2-0.1,2.9c0.3,0.9,1.2,1.3,2.2,1.3c1.2-0.2,2.4-0.8,3.4-1.5c0.1-0.1,0.3-0.2,0.4-0.3l0.3-0.2
	c0.1-0.1,0.1-0.1,0.3-0.2c0.9-0.7,1.8-1.4,2.5-2.2l0.3-0.3l1.3-1.3c0.3-0.3,0.5-0.6,0.8-0.9l0.4-0.5l0.1-0.1l0.2-0.3l0.1-0.2
	l0.2-0.3c0,0,0-0.1,0.1-0.2l0.2-0.3l0.6-0.8c0.4-0.5,0.7-1.1,1-1.7l0.6-1.1l0.2-0.3l0.9-1.8c0,0.6,0.1,1.2,0.3,1.7
	c0.1,0.3,0.2,0.7,0.4,0.9c0.2,0.2,0.3,0.6,0.5,0.8l0.2,0.3l0.3,0.3c0.2,0.2,0.4,0.4,0.6,0.6l0.4,0.2c1.2,0.8,2.7,1.3,4.2,1.6
	c0.1,0,0.3,0,0.5,0c0.5,0,1,0,1.5,0c0.2,0,0.3,0,0.5,0c0.6-0.1,1.2-0.3,1.8-0.6c0.1,0,0.3-0.1,0.4-0.2c0.4-0.2,0.8-0.4,1.2-0.7
	l0.4-0.4c0.9-0.8,1.6-1.9,1.7-3.2l0,0c0-0.4,0-0.8,0-1.1c0-0.4-0.2-0.8-0.4-1.1c-0.2-0.5-0.5-0.8-0.8-1.2c-0.3-0.3-0.7-0.5-1.1-0.6
	c-0.5-0.2-0.9-0.3-1.4-0.2c-0.7,0.1-0.9,0.8-0.8,1.3c0,0.1,0.1,0.2,0.2,0.3c0.1,0.1,0.2,0.2,0.3,0.2c1.1,0.1,2.5,0.6,2.6,1.9
	c0,0.1,0,0.3,0,0.5c-0.1,1.4-1.1,3-2.6,3.3c-0.1,0-0.2,0-0.4,0c-1.5,0.2-3.1,0-4.4-0.8l-0.6-0.4c0,0,0,0,0-0.1c0,0-0.1,0-0.1-0.1
	c-0.1,0-0.2-0.1-0.3-0.2l-0.5-0.6c0,0,0,0,0-0.1h-0.1l-0.2-0.4c-0.1-0.2-0.2-0.4-0.3-0.6l-0.1-0.1v-0.1l-0.1-0.4l-0.2-0.8v-0.1v-0.1
	v-1.3V124v-0.2c0-0.1,0.1-0.3,0.1-0.5c0.1-0.6,0.3-1,0.6-1.5c0.5-1,1.1-1.8,2-2.5c0.3-0.3,0.7-0.6,1.1-0.8l0.4-0.2l0.5-0.3
	c2.2-1.2,4.6-1.2,7-1.4h0.5c0.5,0,1,0,1.5,0.1c0.2,0,0.4,0,0.7,0c0,0,1.1,0.1,1.6,0.2c0.2,0,0.3,0,0.3,0c0.6,0,1.1,0.2,1.7,0.3
	c0.2,0,0.4,0.1,0.6,0.2l0.6,0.2c2.2,0.7,4.5,1.1,6.7,1.1h1.7c0.2,0,0.4,0,0.6,0h1.3c0,0,0.1,0,0.2,0h0.2l-0.2,0.3
	c-0.3,0.8-0.6,1.7-1.1,2.5l-0.2,0.5c-0.1,0.2-0.1,0.4-0.2,0.6c-0.1,0.1-0.1,0.3-0.2,0.5l-0.2,0.6l-0.1,0.5l-0.2,0.5
	c-0.2,0.5-0.3,0.9-0.6,1.4l-0.2,0.5c-0.1,0.2-0.1,0.4-0.2,0.5c0,0.2-0.1,0.4-0.2,0.5c-0.5,1.6-1.1,3-1.7,4.5l-0.3,0.7
	c-0.7,1.8-1.1,3.8-2,5.5l-0.3,0.8l-0.3,0.7c-0.8,1.4-1.4,2.8-2,4.2l-0.3,0.7l-1.7,3.3l-0.2,0.4l-0.3,0.6l-0.2,0.6l-0.3,0.7
	c-0.2,0.4-0.4,0.8-0.6,1.3l-0.3,0.6c-0.1,0.2-0.2,0.4-0.3,0.6l-0.5,0.8c-0.8,1.4-1.8,2.7-2.9,3.9c-0.2,0.2-0.4,0.5-0.6,0.7l-0.6,0.8
	c-0.6,0.6-1.1,1.2-1.7,1.8c0,0-0.9,0.9-1.4,1.4c-0.2,0.1-0.3,0.2-0.3,0.2l-0.4,0.4c-1.9,1.4-4.2,2.2-6.6,2.3c-0.2,0-0.5,0-0.7,0
	h-0.5c-0.2,0-0.4,0-0.6,0l-1.2-0.2c-0.1,0-0.2,0-0.3-0.1c-0.3,0-0.5-0.1-0.8-0.2c-0.2,0-0.4-0.1-0.7-0.2c-0.7-0.2-1.3-0.7-2-1
	l-0.6-0.4c-0.4-0.3-0.8-0.6-1.1-1l-0.6-0.7l-0.5-0.8c-0.1-0.2-0.2-0.5-0.4-0.7c-0.2-0.6-0.5-1.1-0.7-1.7L273,157
	c0-0.3-0.1-0.7-0.1-1.1l-0.1-0.9c-0.1-1.1-0.1-2.3,0.1-3.3c0-0.3,0-0.6,0.1-0.8c0-0.3,0-0.6,0.1-0.8c0-0.3,0.1-0.6,0.2-0.8
	c0-0.2,0.1-0.4,0.2-0.6c0.5-1.4,1.5-2.5,2.5-3.4c0.2-0.2,0.4-0.4,0.7-0.6c0.7-0.6,1.4-1,2.1-1.4l0.5-0.2l0.7-0.3l0.7-0.2
	c0.9-0.2,1.8-0.2,2.7,0c0.2,0,0.5,0,0.7,0.1c0.4,0.2,0.9,0.4,1.4,0.7c0.1,0,0.3,0.1,0.4,0.2c0.4,0.2,0.8,0.5,1.1,0.8l0.4,0.5
	l0.4,0.5l0.4,0.6c1,1.2,1.1,3,0.4,4.3s-2.2,1.8-3.6,2l-0.4,0.2c-0.2,0.1-0.3,0.3-0.4,0.5c-0.1,0.7,0.3,1.2,0.9,1.3
	c0.2,0,0.3,0,0.5,0c1.2,0,2.3-0.6,3.1-1.4l0.3-0.3c0.1-0.1,0.3-0.3,0.4-0.5c0.1-0.1,0.2-0.3,0.4-0.5c0.6-1.1,1-2.4,1-3.6
	c0-0.2,0-0.5,0-0.7c-0.2-1.1-0.7-2.2-1.4-3.2l-0.5-0.6c-0.8-0.9-1.8-1.6-3-2c-0.1-0.1-0.3-0.1-0.5-0.2c-0.7-0.3-1.4-0.5-2-0.6
	l-0.6-0.1c-0.6,0-1.2-0.1-1.7-0.1l-0.8,0.1c-1.6,0.3-3.1,0.8-4.4,1.6l-0.8,0.5c-1.3,0.8-2.5,1.9-3.4,3.1c-0.1,0.1-0.2,0.3-0.3,0.4
	c-0.7,1-1.1,2.1-1.5,3.3l-0.1,0.4c0,0.3-0.1,0.6-0.1,0.9c-0.1,0.2-0.1,0.5-0.1,0.8c-0.1,0.3-0.1,0.7-0.1,1c-0.1,0.8-0.1,1.7-0.1,2.5
	c0,0.3,0,0.6,0,0.8c0.1,3.1,1.4,6,3.5,8.3c0,0,0.1,0.2,0.3,0.3c0.1,0.2,0.3,0.3,0.3,0.3c0.1,0.2,0.3,0.3,0.5,0.5
	c1.5,1.2,3.2,1.8,5.1,2.2l0.6,0.1c0.2,0,0.5,0.1,0.8,0.1c0.7,0.1,1.4,0.2,2.1,0.1h0.7c0.7,0,1.3-0.1,1.9-0.2c0.1,0,0.3,0,0.5,0
	c2.3-0.4,4.5-1.4,6.6-2.6c0.2-0.1,0.4-0.2,0.6-0.4l1.2-0.8l0.5-0.4c0.5-0.4,0.9-0.9,1.4-1.4l0.5-0.4l0.5-0.4l0.3-0.3
	c0.3-0.3,0.7-0.7,0.9-1l0.5-0.6l0.9-1.2l0.4-0.5l0.3-0.7l0.4-0.7c1.1-1.8,2-3.6,2.9-5.5c0,0,0.1-0.3,0.3-0.7c0.5-1,1-2,1.5-3
	l0.3-0.6c0.2-0.6,0.5-1.2,0.8-1.8c0-0.3,0.1-0.6,0.3-0.9l0.5-0.9c0.1,0,0.2,0.1,0.3,0.1s0.3,0,0.5,0c0.1,0,0.3,0,0.5,0
	c0.9,0.1,1.9,0.1,2.8,0c0.6,0,1.2-0.1,1.8,0c0.7,0,1.3,0,2,0c0.3,0,0.7,0,1,0h0.6c-0.1,0.2-0.2,0.5-0.4,0.7l-0.2,0.4l-1.1,2.5
	c0,0-0.1,0.2-0.2,0.5c-0.3,0.6-0.7,1.6-1,2.5l-0.2,0.5c-0.6,1.3-1.1,2.8-1.4,4.2c0,0.2-0.1,0.5-0.1,0.8c0,0.2,0,0.5,0,0.7
	s0,0.5,0,0.7c0.1,1.9,1.8,3.3,3.7,3c0.2,0,0.4,0,0.6,0c2.3-0.3,4-2,5.6-3.4c0.2-0.1,0.3-0.2,0.5-0.4c0.5-0.4,0.9-0.8,1.4-1.3
	l0.3-0.3l0.6-0.6c0.6-0.7,1.1-1.4,1.6-2.1c-0.1,0.3-0.1,0.5-0.1,0.8l-0.1,0.5c0,1.8,0.4,3.8,1.8,5.1l0.3,0.3
	c0.2,0.2,0.5,0.3,0.8,0.5c0.1,0.1,0.2,0.1,0.4,0.2c0.4,0.1,0.8,0.3,1.1,0.4l0.4,0.1h0.5c0.2,0,0.3,0,0.5,0c0.7,0.1,1.4,0,2.1-0.3
	l0,0c1.5-0.2,3-0.7,4.1-1.8c0-0.1,0.1-0.2,0.2-0.3c0.3-0.3,0.6-0.6,0.8-0.9l0.3-0.3c0.7-0.9,1.4-1.7,2-2.6c0-0.1,0.1-0.2,0.2-0.3
	l0.2-0.2c0.6,0.4,1.4,0.6,2.1,0.7c0.2,0,0.5,0,0.7,0h0.4c0.2,0,0.4,0,0.6,0c0.1,0,0.2,0,0.3,0c0.4-0.1,0.8-0.2,1.1-0.3l0.4-0.1
	c1.2-0.4,2.1-1.3,3-2.2l0.3-0.3l0.4-0.4c-0.5,1.4-1,2.7-1.6,4c0,0-0.1,0.3-0.2,0.8c-0.3,1.3-1,4-1,4c-0.7,2.2-1.4,4.4-2.2,6.6
	c0,0.2-0.1,0.5-0.2,0.7l-0.6,2.5l-0.2,0.6c-0.2,0.7-0.3,1.4-0.5,2.1l-0.1,0.7c0,0.2,0,0.4,0,0.6c0,0.2,0,0.4,0,0.6v0.4
	c0,0.1,0,0.3,0,0.4c0.2,1.2,0.4,2.5,1.3,3.5l0.3,0.3l0.3,0.2c0.3,0.2,0.7,0.4,1.1,0.6l0.4,0.1c1.2,0.3,2.5,0.4,3.8,0.2
	c0.4,0,0.8-0.1,1.2-0.2c1.2-0.2,2.4-0.7,3.4-1.3l0.6-0.4c0.6-0.4,1.2-1,1.7-1.6l0.5-0.6c0.9-1.3,1.5-2.8,1.8-4.3l0.1-0.5l0.3-1.6
	c0-0.2,0-0.4,0-0.6l0.1-1.9v-0.6c-0.2-0.9-0.2-1.8-0.5-2.7c0-0.2-0.1-0.4-0.1-0.6l-0.1-0.6l-0.5-2c-0.2-0.6-0.4-1.2-0.7-1.8
	c-0.1-0.3-0.3-0.7-0.4-1c0.1,0,0.2,0,0.3,0c1.2-0.1,2.2-0.5,3.3-0.8l0.3-0.1c0.7-0.2,1.3-0.6,1.9-1l0,0c0.5-0.2,0.9-0.5,1.3-0.8
	l0.3-0.2c0.1,0,0.2-0.1,0.3-0.2c0.1-0.1,0.2-0.2,0.3-0.2c0.8-0.7,1.4-1.5,2.1-2.3c0,0,0,0,0.1-0.1c0.2-0.2,0.5-0.7,0.5-0.7
	c0.4-0.6,0.8-1.2,1.1-1.8l0.7-1.2l0.2-0.3l1.6-3.3C372.5,142.3,372.4,141.9,372.1,141.7z M208.7,132.6c0,0,0,0.1-0.1,0.2
	c-0.2,0.8-0.9,1.3-1.2,2l-0.3-0.2c0,0,0-0.1-0.1-0.1v-0.1c-0.1-0.1-0.1-0.2-0.2-0.4l-0.1-0.5v-0.2c0,0,0,0,0-0.1V133
	c0,0,0-0.1,0-0.2v-0.3c0-0.6,0-1.3,0.1-1.9c0-0.3,0-0.5,0.1-0.8c0-0.3,0.1-0.7,0.2-1c0.1-0.7,0.3-1.4,0.5-2c0.4-1.3,0.8-2.4,1.3-3.6
	c0,0,0-0.2,0.1-0.3c0-0.2,0.1-0.4,0.1-0.4c0.3-0.5,0.4-1,0.7-1.4l0.1-0.3l0.1-0.4l0.1-0.3c0.2-0.5,0.3-0.9,0.6-1.4
	c0-0.1,0.1-0.2,0.3-0.2c0.3-0.2,0.6-0.2,0.8,0.2c0.3,0.9,0.2,1.8,0.1,2.7v0.4c0,0.5-0.1,1.1-0.2,1.7c-0.2,1.4-0.5,2.7-1,4.1
	c0,0,0,0.1-0.1,0.3l-0.7,1.7l-0.1,0.2c0,0.1,0,0.2-0.1,0.2c-0.3,0.8-0.5,1.6-0.9,2.3L208.7,132.6z M232.3,125.2
	c-0.1,0-0.2,0.1-0.3,0.2c-1,0.7-1.7,1.8-1.8,3v0.4c0,0.4,0,0.8,0,1.1c0,0.1,0,0.3,0,0.4c0,0.5,0.2,1,0.5,1.4
	c0.1,0.2,0.3,0.4,0.5,0.6c-0.4,0.6-0.9,1.1-1.4,1.6l-0.2,0.2l-0.4,0.5c-0.1,0.1-0.2,0.2-0.3,0.3c-0.5,0.6-1.1,1.1-1.7,1.5l-0.5,0.4
	c-0.8,0.7-1.8,1.4-3,1c-0.2-0.1-0.5-0.3-0.6-0.5c-0.3-0.3-0.5-0.6-0.6-0.9c-0.1-0.1-0.1-0.3-0.2-0.5l-0.1-0.5
	c-0.5-2.4,0.6-4.7,1.5-6.8l0.2-0.6l0.8-1.6c0.1-0.2,0.2-0.4,0.4-0.5c0.1-0.2,0.2-0.4,0.4-0.6l0.4-0.5l0.5-0.6l0.4-0.5
	c0.7-1,1.4-2,2.2-2.9c0.2-0.2,0.3-0.4,0.5-0.5c0.9-1,2-2,3.4-2.3l0.4-0.1h0.1c0,0,0.1,0,0.2,0h0.9c0.5,0.1,0.8,0.6,0.9,1.1l0.1,0.4
	c0,0.1,0,0.2,0,0.3v0.4c0,1-0.2,2.1-0.4,3.1l-0.2,0.8c0,0.1,0,0.3,0,0.4c0,0,0,0.1,0,0.2l-0.1,0.3c0,0.1-0.1,0.2-0.1,0.3h-0.3
	c-0.2,0-0.5,0-0.7,0l-0.4,0.1C233,125,232.6,125.1,232.3,125.2z M233.6,127.8c0,0.1-0.1,0.2-0.2,0.3l-0.3,0.6c0,0-0.1,0.1-0.1,0.3
	c-0.1,0.1-0.1,0.2-0.1,0.2l-0.3,0.6l0,0v-0.3c0-0.1,0-0.2,0-0.4c0-0.1,0-0.2,0-0.3s0-0.2,0-0.4c0-0.7,0.2-1.5,0.7-2l0.2-0.2l0.3-0.1
	c0.1,0,0.2,0,0.4,0c-0.1,0.5-0.3,0.9-0.5,1.3L233.6,127.8z M340.1,143.5c-0.1,0-0.2,0.1-0.3,0.2c-1,0.7-1.7,1.9-1.8,3.2v0.4
	c0,0.4,0,0.8,0,1.2c0,0.1,0,0.3,0,0.4c0,0.5,0.2,1,0.5,1.5c0.1,0.2,0.3,0.4,0.5,0.6c-0.4,0.6-0.9,1.1-1.5,1.7l-0.2,0.2l-0.4,0.5
	c-0.1,0.1-0.2,0.2-0.3,0.3c-0.5,0.6-1.1,1.1-1.7,1.6l-0.5,0.4c-0.8,0.7-1.9,1.4-3.1,1c-0.2-0.1-0.5-0.3-0.7-0.5
	c-0.3-0.3-0.5-0.6-0.7-1c-0.1-0.1-0.1-0.3-0.2-0.5l-0.1-0.5c-0.5-2.5,0.6-4.9,1.6-7.1l0.2-0.6l0.8-1.7c0.1-0.2,0.2-0.4,0.4-0.6
	c0.1-0.2,0.2-0.4,0.4-0.7l0.4-0.6l0.5-0.6l0.4-0.5c0.7-1,1.5-2.1,2.3-3.1c0.2-0.2,0.3-0.4,0.5-0.5c1-1,2.1-2.1,3.6-2.4l0.4-0.1h0.1
	c0,0,0.1,0,0.2,0h0.9c0.6,0.1,0.8,0.7,1,1.1l0.1,0.4c0,0.1,0,0.2,0,0.3v0.4c0,1.1-0.2,2.2-0.4,3.3l-0.2,0.8c0,0.1,0,0.3,0,0.4
	c0,0,0,0.1,0,0.2l-0.1,0.3c0,0.1-0.1,0.2-0.1,0.3h-0.3c-0.2,0-0.5,0-0.7,0l-0.4,0.1C340.8,143.2,340.4,143.3,340.1,143.5z
	 M341.5,146.2c0,0.1-0.1,0.2-0.2,0.3l-0.3,0.7c0,0-0.1,0.1-0.1,0.3c-0.1,0.1-0.1,0.2-0.1,0.2l-0.3,0.7l0,0V148c0-0.1,0-0.2,0-0.4
	c0-0.1,0-0.2,0-0.3s0-0.2,0-0.4c0-0.8,0.2-1.6,0.8-2.1l0.2-0.2l0.3-0.1c0.1,0,0.2,0,0.4,0c-0.1,0.5-0.3,0.9-0.5,1.4L341.5,146.2z
	 M353.5,148.3c0.8-2.3,1.7-4.6,2.5-7l0.2-0.7c0.1-0.2,0.1-0.5,0.2-0.7c0.7-1.8,1.2-3.8,1.9-5.6c0-0.2,0.1-0.4,0.2-0.5l1.3-3.2
	l0.2-0.5c0.2-0.4,0.4-0.8,0.6-1.3l0.2-0.4c0.5-1.3,1.8-2.9,3.3-1.9c0.2,0.2,0.4,0.4,0.5,0.6l0.2,0.3c0.4,1.5,0.2,3-0.2,4.5l-0.1,0.4
	l-0.3,0.9l-0.1,0.5c0,0.1-0.1,0.3-0.1,0.4c-0.2,1.1-0.6,2.2-1,3.2l-0.3,0.6l-0.5,1l-0.2,0.5c-0.1,0.2-0.2,0.3-0.2,0.5l-0.5,1
	l-0.2,0.4l-1.2,1.7l-0.4,0.5l-0.4,0.5l-1.3,1.5l-0.4,0.4l-0.4,0.5l-1,1c-0.4,0.3-0.8,0.6-1.1,0.8c-0.1,0.1-0.3,0.2-0.5,0.3l-0.3,0.1
	l-0.3,0.1C353.4,148.6,353.4,148.4,353.5,148.3z M353.6,152.3L353.6,152.3l0.2,0.2l0.2,0.3l0.8,1.2h-0.1h-0.1l-0.4-0.1
	c-0.3-0.2-0.5-0.3-0.7-0.5c-0.1-0.1-0.2-0.2-0.3-0.3c0,0,0-0.1-0.1-0.1v-0.1c0,0-0.1-0.1-0.1-0.2l0,0l0,0c0-0.1,0-0.2-0.1-0.2
	l-0.3-0.7c0,0.1-0.1-0.1-0.1-0.1l-0.1-0.1C352.8,151.6,353.2,151.9,353.6,152.3z M357.5,163.9v0.8c0,1,0,2-0.2,3l-0.1,0.6l-0.1,0.7
	l-0.2,0.6c-0.5,2-1.9,3.5-3.2,5c-0.3,0.4-0.7,0.7-1.1,1l-0.9,0.5c-0.2,0.1-0.4,0.1-0.5,0.2c-0.4,0.1-0.8,0.3-1.2,0.3
	c-0.8,0.2-1.6,0.1-2.3-0.2c-0.2-0.1-0.4-0.2-0.6-0.4c-1.4-1.7-1.5-4.2-0.8-6.3c0.1-0.2,0.1-0.4,0.2-0.6l0.8-2.2l0.2-0.8
	c0.5-2.3,1.1-4.6,1.8-6.9c0.6-1.7,1.2-3.4,1.8-5.1l0.4-1c0.1,0.3,0.3,0.6,0.6,0.9c0.8,1,2.1,1.6,3.3,1.7h0.1
	c0.5,0.8,1.1,1.6,1.5,2.5c0,0.1,0,0.2,0.1,0.3l0.1,0.6c0,0.1,0,0.2,0,0.3l0.1,0.6C357.8,161.3,357.6,162.6,357.5,163.9z"/>
<path class="st1" d="M204.1,293.7c-1,0-1.9,1-2.7,3c-0.9,2-1.1,4.1-1.1,6.6c0,1.3,0,2.7,0.1,4c0.6,4.2,0.8,5.3,1,6.4
	c0,0.1,0.1,0.3,0.1,0.4c0.1,0.8,0.3,1.5,0.7,1.9c0.4,0.4,1.3,0.5,2.1,0.5c0.5,0,2.8-0.4,3.4-1.7c0.4-0.6,0.9-3.4,0.9-4.1
	c0.3-1.4,0.4-2.9,0.5-4.3V305c0-2-0.1-5-0.7-7.8c-0.2-1.1-0.6-1.9-1.4-2.6C206.4,293.8,205.1,293.7,204.1,293.7 M204.4,318.4
	c-0.9,0-1.5-0.1-2.1-0.2c-1.1-0.3-1.8-1.5-2.5-2.7c-0.3-0.8-0.5-1.6-0.6-2.5c0-0.3-0.1-0.5-0.1-0.8c-0.2-1-0.3-1.8-0.4-2.6
	c-0.1-0.4-0.1-0.9-0.2-1.4c-0.2-1.7-0.3-3.2-0.3-4.7s0.1-5.3,1.4-8.1c1.1-2.5,3-3.9,5.1-3.9c0.7,0,1.6,0,2.2,0.4
	c1.1,0.6,3.1,2.1,3.6,6.5c0.3,2.2,0.4,4.3,0.4,6.2c0,1.1,0,2.1-0.1,3.1c0,0.2,0,0.4,0,0.7c-0.1,1.4-0.2,2.8-0.5,4
	c-0.2,1.3-0.8,3.1-1.7,4.1c-0.8,1.1-1.9,1.5-2.8,1.7C205.3,318.4,204.8,318.4,204.4,318.4"/>
<path class="st1" d="M216.3,288.8L216.3,288.8c-1.1-0.1-1.3-0.6-1.3-1.5v-1.2c0-0.6,0.5-1,1-1h0.5c0.6,0,1,0.5,1,1.1
	c0,0.3,0.1,1,0.1,1.3C217.6,288.3,217.3,288.8,216.3,288.8 M216.6,318.4c-0.9,0-1.4,0-1.4-0.8c0-1.9,0.1-3.6,0.1-5.3
	c0.1-1.7,0.1-3.4,0.1-5.3c0-0.5,0-1.2-0.1-1.8c0-0.7-0.1-1.4-0.1-1.9c0-1.6,0.1-2.8,0.1-3.9c0.1-1,0.1-2,0.1-3.1v-1.7
	c0-0.2-0.1-0.9-0.1-1.3c0-0.3,0-0.4,0-0.5c0,0,0-0.1,0-0.2c0-0.3,0-0.6,0.1-0.8c0.1-0.1,0.2-0.1,0.3-0.1c1.1,0,1.3,0.1,1.6,0.4
	c0.4,0.3,0.4,1.6,0.4,1.7v0.7c0,1.3-0.1,2.5-0.2,3.8s-0.2,2.6-0.2,4c0,0.7,0.1,1.7,0.1,2.6c0.1,0.9,0.1,1.9,0.1,2.6
	c0,1.8-0.1,3.4-0.2,5s-0.2,3.3-0.2,5C217.2,318.1,217,318.4,216.6,318.4"/>
<path class="st1" d="M225,317.9c-0.2,0-1,0-1-0.8c0-0.3,0-1.1,0-2.1c0-0.4,0-0.8-0.1-1.2c0-0.5-0.1-1.1-0.1-1.6s0.1-1.1,0.1-1.6
	c0.1-0.5,0.1-1,0.1-1.5c0-1.7,0.1-3.2,0.2-3.7v-2.7c0-0.4-0.1-0.7-0.1-1.1c-0.1-0.5-0.1-0.9-0.1-1.4l0.1-2.9l-0.1-1.1v-1v-0.9
	c-0.3,0-0.6,0-0.9,0c-0.3,0-0.5,0-0.7,0c-0.4,0-1.1,0-1.3-0.2c-0.2-0.1-0.4-0.6-0.4-0.9v-0.3c0-0.7,0.4-0.7,0.8-0.8
	c0.1,0,0.2,0,0.3,0c0.2,0,0.4,0,0.7,0h1.5c0-0.2,0-0.4,0-0.6c0-0.3,0-0.6,0-1c0-0.2,0-0.6-0.1-1.1c0-0.4,0-0.8,0-1
	c0-1.2,0.3-3,0.8-3.7c0.4-0.6,0.9-1.3,2.1-1.5c0.1,0,0.3,0,0.5,0c0.4,0,0.8,0.1,1.2,0.2c0.1,0,0.2,0,0.2,0.1
	c1.4,0.3,2.2,2.3,2.2,3.1c0,0.1-0.1,0.2-0.3,0.3h-0.1c-0.3,0.2-0.4,0.2-0.7,0.2c-0.1,0-0.3,0-0.5-0.1c-0.2,0-0.2-0.2-0.4-0.5
	c0-0.1-0.1-0.1-0.1-0.2c-0.4-1.1-1.3-1.1-1.6-1.1c-0.4,0-0.7,0-0.9,0.3c-0.3,0.4-0.5,1.9-0.5,3.1v3.5c0.5,0,0.9,0,1.3,0.1
	c0.4,0,0.7,0.1,1.2,0.1h1.1c0.5,0,0.9,0.4,0.9,0.7c0,0.9-0.1,1.2-1.1,1.2c-0.5,0-0.8,0-1.1,0c-0.7,0-1.2,0-1.4-0.1
	c-0.1,0-0.4-0.1-0.9-0.1h-0.1c0,0.1,0,0.2,0,0.2c0,0.2,0,0.5,0,0.9c0,0.5,0,0.8,0.1,1.1c0,0.3,0.1,0.5,0.1,0.8c0,0.2,0,0.3,0,0.5
	c0,0.3,0,0.6,0,1.1s0.1,1.2,0.1,1.8c0,0.6,0.1,1.2,0.1,1.6c0,1.1-0.1,3.9-0.2,6.5c0,0.6-0.1,1.2-0.1,1.8c0,0.5-0.1,1-0.1,1.5
	c0,0.3,0,0.6,0,1c0,0.5,0.1,1.1,0,1.6c-0.1,0.9-0.1,1.8-0.2,2.5v0.2C226.1,317.9,225.5,317.9,225,317.9"/>
<path class="st1" d="M238.4,294c-0.4,0-0.8,0.1-1.2,0.3c-0.1,0-0.2,0.1-0.3,0.1c-0.6,0.2-1.2,0.4-1.6,1c-0.5,0.7-1.1,2.8-1.2,4.2
	c0,0.9-0.1,1.7-0.1,2.6c-0.1,0.8-0.1,1.7-0.1,2.5c0,1.7,0.1,3.5,0.3,5.2c0.1,0.6,0.3,1.2,0.4,1.7c0.1,0.2,0.2,0.4,0.2,0.6
	c0.1,0.3,0.2,0.7,0.2,1c0.1,0.5,0.1,0.9,0.4,1.3c0.5,1,2.1,1.9,3.1,1.9c1-0.1,1.9-1.1,3-3c0.4-0.8,1-2.8,1.2-3.9c0-2,0-4,0-4.7
	s-0.1-1.4-0.2-2c-0.1-0.7-0.2-1.4-0.2-2.1c0-0.5,0.1-1.3,0.2-2.1c0-0.3,0.1-0.5,0.1-0.8c0-0.5,0-1.1-0.3-1.6
	C241.5,295.3,239.7,294,238.4,294 M238.5,318.4c-2.1,0-4.3-1.5-5.2-3.4c-0.2-0.4-0.2-0.8-0.3-1.2c-0.1-0.3-0.1-0.7-0.2-1
	c-0.1-0.3-0.2-0.5-0.2-0.8c-0.2-0.6-0.4-1.2-0.4-1.8c-0.2-1.7-0.3-3.3-0.3-5c0-1.8,0-3.4,0.1-5.2c0-0.2,0.1-0.4,0.1-0.6
	c0.2-1.3,0.4-2.6,0.8-3.8c0.6-1.6,1.5-2.5,3-3c0.1,0,0.3-0.1,0.4-0.1c0.6-0.2,1.2-0.5,2.1-0.5l0,0c1.5,0,3.5,1.1,4.4,1.9l0,0l0,0
	c0-0.2,0-0.8,0-1.8c0-0.5,0.3-0.6,0.6-0.6c0.1,0,0.2,0,0.3-0.1c0.1,0,0.4-0.1,0.5-0.1c0.7,0,0.7,0.6,0.7,0.9c0,0.5,0.1,1.1,0.1,1.6
	s-0.1,1.5-0.1,2.6c-0.1,0.8-0.1,1.6-0.1,1.9s-0.1,0.7-0.1,1c-0.1,0.5-0.1,0.9-0.1,1.4s0.1,1.4,0.2,2.2c0.1,0.9,0.2,1.7,0.2,2.1
	c0,0.2,0,0.6,0,1.1c0,0.9,0,2.1,0,3.5c0,0.7,0,1.5,0,2.2s0,1.5,0,2.2c0,0.4,0,1.3,0.1,1.6c0,0.1,0,0.1,0,0.2c0,0.2,0.1,0.6,0.2,0.6
	h0.2c0.4,0.1,0.7,0.1,0.9,0.2l0,0l0,0c0.1,0.2,0.1,0.5,0.1,0.8s0,0.6-0.2,0.8c-0.2,0.2-0.5,0.2-1,0.2c-0.6,0-1.6-0.2-1.8-0.5
	s-0.4-1.6-0.5-2.4v-0.1l0,0c-0.1,0.4-0.5,0.9-0.7,1.2c-0.1,0.1-0.1,0.2-0.2,0.3c-0.2,0.3-1,1.1-1.8,1.5
	C239.6,318.3,239,318.4,238.5,318.4"/>
<path class="st1" d="M254.9,318.4c-3.8,0-5.1-3.7-5.5-5.9c-0.2-1.1-0.2-2.3-0.2-3.5c0-0.7,0-1.4,0-2c0-0.9-0.1-2.6-0.2-4.1
	c-0.1-1.1-0.1-2-0.1-2.4c0-1,0.1-2,0.4-3c0.1-0.3,0.1-0.5,0.2-0.8c0.1-0.5,0.2-1,0.5-1.5c1.7-3.4,3.8-3.7,5.3-3.7
	c2,0,3.2,0.7,4.2,2.3c0.5,0.8,0.8,1.4,1,1.9l0.2,0.7c0.1,0.3-0.4,0.5-0.5,0.5c0,0-0.1,0-0.2,0.1c-0.2,0.1-0.5,0.3-0.7,0.3
	s-0.3-0.2-0.5-0.6l-0.1-0.1c-0.9-2-2-2.9-3.6-2.9c-1.4,0-2.3,0.5-2.7,1.7c-0.6,1.1-0.9,1.9-1.2,3.1c-0.2,0.7-0.3,1.4-0.3,2.2
	c0,0.2,0,0.7,0.1,1.5c0.1,1.5,0.3,3.9,0.3,5.3c0,0.4,0,0.9,0,1.4c0,1.3,0,2.8,0.2,3.9c0.7,3,2.2,3.4,3.4,3.4c0.4,0,1.2-0.3,2.1-0.8
	c0.7-0.4,1.2-1,1.4-1.7c0.2-0.4,0.2-0.8,0.2-1.2c0-0.2,0-0.4,0.1-0.6v-0.2c0.1-0.4,0.1-0.6,0.4-0.6c0.1,0,0.4,0.1,0.8,0.1h0.1
	c0.1,0,0.3,0.1,0.4,0.1c0.3,0,0.3,0.2,0.3,0.3l-0.1,0.8c-0.3,1.4-1,3.9-2.7,4.8c-0.2,0.1-0.4,0.2-0.5,0.3
	C256.7,318.1,256.1,318.4,254.9,318.4"/>
<path class="st1" d="M276,318c-0.7,0-1-0.3-1-1.1v-0.4c0-0.1,0-0.3,0-0.5s0-0.4,0-0.5c0-0.7,0-1.4-0.1-2.2c0-0.9-0.1-2-0.1-3
	c0-0.9,0-1.8,0.1-2.7c0-0.8,0.1-1.6,0.1-2.4s0-1.6,0-2.5c0-0.8,0-1.7,0-2.5c0-2.1-0.3-3.3-0.5-4c-0.5-1.9-1.5-1.9-2.9-1.9
	c-1.1,0-2.2,0.6-3.3,2l-1.1,1.4c0,0.4,0,0.8,0,1.2c0,1,0,2,0.1,3c0,0.3,0,0.6,0,0.9s0,0.7,0,1c0,1.7-0.1,3.6-0.2,5.6
	c0,0.3-0.1,0.7-0.1,1s-0.1,0.6-0.1,0.9c0,0.5,0,1.1,0,1.6s0,1,0,1.5v0.5c0,1-0.1,1.9-0.1,2.6l0,0l0,0c-0.3,0.4-0.6,0.5-1,0.5
	c-0.7,0-1.1-0.2-1.1-0.6c0-3.6,0.1-7.3,0.3-10.9c0-1.1,0.1-2.3,0.1-3.4c0-0.4,0-0.9-0.1-1.5c0-0.9-0.1-1.9-0.1-2.4
	c0-0.1,0-0.3,0.1-0.5c0-0.2,0.1-0.3,0.1-0.4c0.1-1.9,0.1-3.1,0-4.7c0-0.7,0-1.3-0.1-2.1c0-0.3,0-0.7-0.1-1c0-0.3-0.1-0.7-0.1-1
	c0-0.9,0-1.5-0.1-2.2c0-1,0-2-0.1-3.2c0-0.4,0.2-0.6,0.6-0.6c0.1,0,0.2,0,0.2,0c0.1,0,0.2,0,0.3,0c0.4,0,1,0,1.1,0.7
	c0.1,1.1,0,1.8,0,2.6c0,0.5,0,1.1,0,1.8c0.2,2.1,0.3,4,0.4,5.7c0,0.1,0,0.4,0,0.5c0.1,0,0.1-0.1,0.2-0.1c0.1,0,0.1-0.1,0.2-0.1
	c0.5-0.5,1-1,1.7-1.3c0.2-0.1,0.4-0.2,0.6-0.3c0.7-0.3,1.2-0.6,2.4-0.6c3.1,0,3.9,1.2,4.6,4.5c0.5,2.3,0.5,4.3,0.5,5
	c0,0.5,0,1,0,1.6s0.1,1.2,0.1,1.8c0,0.6,0,1.1-0.1,1.6c-0.2,1.1-0.2,2.4-0.2,3.9c0,0.9,0,1.7,0.1,2.5c0,0.7,0,1.4,0,2
	c0,1.1-0.1,1.9-0.2,2.5C276.7,317.8,276.4,318,276,318"/>
<path class="st1" d="M283,318c-0.7,0-1.5-0.1-1.5-1.2v-0.3c0-0.9,0.1-2,0.6-2.2c0.3-0.1,0.6-0.2,1-0.2c0.5,0,0.6,0.1,0.9,0.5
	l0.1,0.1c0.2,0.4,0.3,1.1,0.3,1.7C284.3,317.4,283.8,318,283,318"/>
<path class="st1" d="M297.7,294.2c-0.5,0-0.8,0.1-1.4,0.6l-0.2,0.1c-0.4,0.3-1.1,0.7-1.3,1.2c-1.3,2.9-1.3,5.4-1.3,8.3
	c0,0.5-0.1,1-0.1,1.5c-0.1,0.6-0.2,1.2-0.2,1.8c0,0.3,0.1,0.6,0.1,0.9c0.1,0.3,0.1,0.6,0.2,0.9c0.1,0.8,0.3,3.2,0.9,4.2
	c0.7,1.2,1.4,1.9,2.7,1.9c0.5,0,1-0.2,1.4-0.4c0.1,0,0.2-0.1,0.2-0.1c1.7-0.7,2.1-1.3,2.7-2l0.1-0.1c0.2-0.3,0.4-0.6,0.5-0.7v-0.9
	c0-0.8,0.1-1.6,0.1-2.3c0.1-0.7,0.1-1.3,0.1-1.9c0-0.5-0.1-0.9-0.1-1.3s-0.1-0.8-0.1-1.1c0.1-2.8,0.1-4.4,0.1-5
	c0-1.1-0.1-2.7-0.3-3.2c-0.1-0.1-0.2-0.1-0.2-0.2c-0.3-0.2-0.5-0.5-1.1-0.8C300.1,294.9,298.3,294.2,297.7,294.2 M296.7,326.8
	c-0.3,0-0.7-0.1-1.1-0.2c-0.2,0-0.4-0.1-0.5-0.1c-0.6-0.2-0.9-0.5-0.9-0.8c0-0.1,0-0.2,0.1-0.3v-0.1c0.1-0.1,0.1-0.2,0.1-0.3
	c0.1-0.3,0.2-0.5,0.5-0.5c0.1,0,0.3,0,0.5,0.1h0.1c0.2,0.1,0.6,0.1,0.9,0.1c1.5,0,3.3-0.8,4.1-1.6c0.5-0.6,1.4-3.3,1.4-4.8
	c0-0.5,0-0.9,0.1-1.2c0-0.4,0.1-0.7,0.1-1.1s0-0.6,0-0.7l-0.1,0.1c-0.1,0.1-0.1,0.1-0.2,0.2c-0.5,0.4-1,0.8-1.7,1.1
	c-1,0.5-2,1-3.3,1c-0.8,0-1.6-0.3-2.2-0.7c-2.9-2.3-3.2-6.2-3.2-9.3c0-1.1,0.1-2.3,0.1-3.3c0-0.3,0-0.7,0-1.1
	c0.1-2.4,0.1-6.1,1.6-8.5c0.4-0.7,1.4-1.3,2-1.7l0.1-0.1c0.8-0.5,1.2-0.8,2.4-0.8c0.6,0,1.9,0.2,2.5,0.5c0.5,0.2,0.9,0.5,1.2,0.6
	c0.1,0.1,0.3,0.2,0.3,0.2c0-0.1,0-0.3,0-0.4c0-0.3,0-0.6,0-0.9c0-0.6,0.6-0.6,1-0.6c0.7,0,0.9,0.1,1.1,0.6l0,0
	c0.2,2.8,0.3,6.4,0.3,9c0,1.4-0.1,2.4-0.1,2.9c0,0.3,0,0.5,0,0.6v4c0,2.5,0,5.7-0.1,7.8c0,2.6-0.6,7-1.9,8.3
	C301.2,325.4,299,326.8,296.7,326.8"/>
<path class="st1" d="M315,318.4c-1.8,0-3.4-0.7-3.8-1.1l-0.2-0.2c-0.6-0.7-1.2-1.3-1.4-2.5v-0.1c-0.1-0.4-0.2-1.4-0.3-2.7
	c-0.2-3.2-0.4-8.3-0.4-9v-1.5c0.1-1.1,0-2.3,0-3.1c0-0.3,0-0.6,0-0.8v-4c0-0.6,0.1-0.9,0.2-1.2c0.1-0.3,0.2-0.4,0.6-0.4
	c0.1,0,0.5,0.1,0.7,0.2c0.4,0.1,0.8,0.3,0.8,0.8c0,0.1,0,0.2-0.1,0.3v0.1c-0.1,0.7-0.2,1.6-0.2,2.9c0,0.5,0.1,1.5,0.1,2.4
	c0,0.5,0.1,0.9,0.1,1.1c-0.1,1.9-0.1,4.5,0,6.9c0,1.1,0,2.1,0,3c0,2.5,0.6,5.8,1.5,6.4c0.5,0.4,1.9,0.7,2.4,0.7
	c0.9,0,2.4-0.4,2.9-0.8c0.6-0.6,1.1-1.3,1.3-2.5c0.2-1.6,0.4-6.5,0.2-8c-0.2-1.8-0.3-7.6-0.3-9.3c0-0.6,0-1,0.1-1.5
	c0.1-0.6,0.1-1.1,0.1-1.9c0-0.6,0.8-0.6,1.1-0.6c0.5,0,1,0,1,0.5c0,1.6,0,3.1-0.1,4.7c0,1.5-0.1,2.9-0.1,4.4c0,1.6,0.1,3,0.2,4.3
	c0.1,0.8,0.1,1.6,0.1,2.5s-0.3,5.6-0.9,6.7c-0.3,0.7-0.8,1.3-1.2,1.8c-0.5,0.6-1,0.9-1.6,1.2h-0.1
	C317.4,318.3,316.1,318.4,315,318.4"/>
<path class="st1" d="M332.1,294c-0.4,0-0.8,0.1-1.2,0.3c-0.1,0-0.2,0.1-0.3,0.1c-0.6,0.2-1.2,0.4-1.6,1c-0.5,0.7-1.1,2.8-1.2,4.2
	c0,0.9-0.1,1.7-0.1,2.6c-0.1,0.8-0.1,1.7-0.1,2.5c0,1.7,0.1,3.5,0.3,5.2c0.1,0.6,0.3,1.2,0.4,1.7c0.1,0.2,0.2,0.4,0.2,0.6
	c0.1,0.3,0.2,0.7,0.2,1c0.1,0.5,0.1,0.9,0.4,1.3c0.5,1,2.1,1.9,3.1,1.9c1-0.1,1.9-1.1,3-3c0.4-0.8,1-2.8,1.2-3.9c0-2,0-4,0-4.7
	s-0.1-1.4-0.2-2c-0.1-0.7-0.2-1.4-0.2-2.1c0-0.5,0.1-1.3,0.2-2.1c0-0.3,0.1-0.5,0.1-0.8c0-0.5,0-1.1-0.3-1.6
	C335.2,295.3,333.4,294,332.1,294 M332.2,318.4c-2.1,0-4.3-1.5-5.2-3.4c-0.2-0.4-0.2-0.8-0.3-1.3c-0.1-0.3-0.1-0.7-0.2-1
	c-0.1-0.3-0.2-0.5-0.2-0.8c-0.2-0.6-0.4-1.2-0.4-1.8c-0.2-1.7-0.3-3.3-0.3-5c0-1.8,0-3.4,0.1-5.2c0-0.2,0.1-0.4,0.1-0.6
	c0.2-1.3,0.4-2.6,0.8-3.8c0.6-1.6,1.5-2.5,3-3c0.1,0,0.3-0.1,0.4-0.1c0.6-0.2,1.2-0.5,2.1-0.5l0,0c1.5,0,3.5,1.1,4.4,1.9l0,0l0,0
	c0-0.2,0-0.8,0-1.8c0-0.5,0.3-0.6,0.6-0.6c0.1,0,0.2,0,0.3-0.1c0.1,0,0.4-0.1,0.5-0.1c0.7,0,0.7,0.6,0.7,0.9c0,0.5,0.1,1,0.1,1.6
	c0,0.5-0.1,1.5-0.1,2.6c-0.1,0.8-0.1,1.6-0.1,1.9s-0.1,0.7-0.1,1c-0.1,0.5-0.1,0.9-0.1,1.4s0.1,1.4,0.2,2.2c0.1,0.9,0.2,1.7,0.2,2.1
	c0,0.2,0,0.6,0,1.1c0,0.9,0,2.1,0,3.5c0,0.7,0,1.5,0,2.2s0,1.5,0,2.2c0,0.4,0,1.3,0.1,1.6c0,0.1,0,0.1,0,0.2c0,0.2,0.1,0.6,0.2,0.6
	h0.2c0.4,0.1,0.7,0.1,0.9,0.2l0,0l0,0c0.1,0.2,0.1,0.5,0.1,0.8s0,0.6-0.2,0.8c-0.2,0.2-0.5,0.2-1,0.2c-0.6,0-1.6-0.2-1.8-0.5
	c-0.2-0.3-0.4-1.6-0.5-2.4v-0.1l0,0c-0.1,0.4-0.5,0.9-0.7,1.2c-0.1,0.1-0.1,0.2-0.2,0.3c-0.2,0.3-1,1.1-1.8,1.5
	C333.3,318.3,332.7,318.4,332.2,318.4"/>
<path class="st1" d="M348.6,294c-1.4,0-2.6,1.5-3.2,3.9c-0.6,2.5-0.6,6.1-0.6,8.6c0,1.2,0.1,2.2,0.2,3.2c0.2,0.8,0.3,1.6,0.4,2.3
	c0.4,2.7,0.6,4.6,3.3,4.6c0.7,0,1.4,0,2-0.5c1.1-1,1.7-2,2.4-3.2l0.3-0.5c0.2-0.4,0.3-0.6,0.5-1.1v-0.4v-3.1c0-0.9,0-1.8-0.1-2.6
	c-0.1-0.6-0.1-1.2-0.2-1.8c-0.2-2.2-0.5-4.4-0.5-6.6C352.6,295.7,350.7,294,348.6,294 M348.8,318.6c-3.9,0-4.5-2.1-5.2-5.1l-0.1-0.5
	c-0.6-2.3-0.9-4.6-0.9-6.6c0-2.7,0.1-6.6,0.8-9.6c0.7-3.1,2.6-5,5.1-5c1.5,0,3.2,0.6,4.4,1.6c0-0.4,0.1-0.9,0.1-1.3
	c0.2-2.7,0.3-5.5,0.3-8.2c0-0.4,1.1-0.9,1.4-0.9c0.6,0,0.7,0.2,0.7,1c0,2-0.1,4-0.2,5.9c-0.1,1.9-0.2,3.8-0.2,5.7
	c0,2.2,0.3,4.5,0.5,6.6c0.4,3.4,0.4,6.5,0.4,9.6v1c0,0.8,0,1.6,0,2.4c0,0.7,0,1.4,0,2.1c0,0.4-0.1,0.6-0.2,0.7
	c-0.2,0.2-0.9,0.2-1.2,0.2c-0.2,0-0.8,0-0.8-0.7c0-0.1,0-0.3,0-0.5c0-0.5,0-1,0-1.4C352.3,317.5,351,318.6,348.8,318.6"/>
<path class="st1" d="M361.3,318c-0.7,0-1.5-0.1-1.5-1.2v-0.3c0-0.9,0.1-2,0.6-2.2c0.3-0.1,0.6-0.2,1-0.2c0.5,0,0.6,0.1,0.9,0.5
	l0.1,0.1c0.2,0.3,0.3,1.1,0.3,1.7C362.6,317.4,362.2,318,361.3,318"/>
<path class="st1" d="M133.3,207.2L133.3,207.2c-0.6,0-1-0.5-1-1c1.3-33.9,14.4-66.6,36.9-92c22.2-25.2,52.7-42.3,85.6-48
	c0.5-0.1,1,0.3,1.1,0.8s-0.3,1-0.8,1.1c-32.5,5.7-62.5,22.5-84.5,47.4c-22.2,25.1-35.1,57.4-36.4,90.8
	C134.2,206.8,133.8,207.2,133.3,207.2z"/>
<path class="st1" d="M298.1,66.9H298c-5.2-0.6-9-0.9-13.3-1c-0.5,0-0.9-0.5-0.9-1s0.4-1,1-0.9c4.3,0.1,8.2,0.4,13.5,1
	c0.5,0.1,0.9,0.5,0.8,1.1C299,66.6,298.6,66.9,298.1,66.9z"/>
<path class="st2" d="M256.1,89.9c-0.2,1.2-2.1,0.9-2-0.4l0.1-0.6c-0.1-2.4,0.6-4.6,1.9-6.8c0.1-0.3,0.3-0.7,0.1-1.1
	c-0.1-0.2,0-0.4-0.2-0.7c-0.2-1.2-0.6-2.9-1.1-4.1c0-0.3,0-0.6-0.1-0.9c-0.3-2.1-0.5-4.3-0.7-6.5c-0.4-3.3-0.6-6.6-0.9-9.8
	c0-0.3,0-0.6-0.1-0.9v-1.6v-0.8c0.1-1.7,0.3-3.3,0.5-4.9l0.1-0.8c0.2-1.9,1-3.6,1.6-5.4c0.1-0.3,0.2-0.5,0.4-0.7l0.3-0.7
	c0.1-0.3,0.2-0.5,0.4-0.7l0.4-0.8l0.4-0.8l0.9-1.4l0.4-0.8l0.6-0.6c1.8-2,2.5-4.9,4.6-6.4l0.6-0.7c1-1,2.1-2,3.3-2.8
	c7.5-6,17-9,26.6-10.4l1-0.1l2.1-0.2c0.2-0.1,0.4,0,0.6-0.1l0.7-0.1c1.9-0.1,3.9-0.8,5.6,0.2c0.4,0.3,0.4,0.6,0.2,0.9
	s-0.6,0.7-0.9,0.8l-0.8,0.5c-0.2,0.2-0.4,0.4-0.5,0.6l-0.6,0.8l-0.3,0.5l-0.5,0.9c-0.6,1.2-1.2,2.5-1.7,3.8l-0.4,0.8l-0.3,0.9
	c-0.5,1.9-1,3.7-1.4,5.5c-0.1,0.4-0.2,0.6-0.2,0.9c-0.5,1.3-1,2.5-1.3,3.8c0,0.3-0.1,0.7-0.2,0.9c-0.4,3-1,5.9-1.5,8.9l-0.1,0.9
	l-0.5,2.6c0,0.3-0.1,0.6-0.2,0.8l-0.3,0.7c-1.2,2.2-1.9,4.6-3.4,6.5l-0.6,0.7c-1.5,1.7-2.8,3.6-4.2,5.5l-0.7,0.6
	c-1.2,1.2-2.4,2.2-3.7,3.1c-5,3.7-10.8,6.1-16.1,8.9c-1.3,0.7-2.5,1.5-3.9,2.1c-0.6,0.2-1.2,0.3-1.7,0.7l-0.6,0.6l-0.3,0.6
	c-0.1,0.1-0.2,0.3-0.2,0.5c-0.8,1.4-1.1,2.9-1.2,4.4l-0.1,0.7L256.1,89.9z M283.7,64.3c0.1-0.1,0.2-0.3,0.3-0.3
	c-2.4,0.1-4.9,0.3-7.4,0.2c-2.9-0.1-5.8-1.2-8.7-1.8c-0.4-0.1-0.6-0.3-0.6-0.5c-0.6,0.9-1.1,1.8-1.6,2.8c1.2,0.2,2,1.2,3.2,1.4
	c0.7,0.1,1.3,0,1.9,0c0.4,0.1,0.8,0,1.1,0l1.1,0.1c0.9-0.1,1.9-0.1,2.8-0.1h0.8l0.7,0.1c1.1,0.1,2.5,0.6,3.5,0.2
	c0.2-0.1,0.4,0,0.6,0c0.6-0.4,1.1-1,1.7-1.5L283.7,64.3z M291,53.4c-2.1-1-4.7-1.1-6.9-1.1l-4.7-0.4h-0.9c-1.4-0.1-2.8,0.1-4.3-0.2
	c-0.1-0.1-0.3-0.1-0.3-0.2v0.1c-0.2,0.2-0.3,0.4-0.4,0.7c-0.4,0.5-0.6,1-0.8,1.5c2.4-0.2,4.7,0.7,7.1,0.8l0.7-0.1l0.7,0.1l9.2,0.3
	c0-0.2,0.1-0.5,0.3-0.7C290.8,53.8,290.8,53.6,291,53.4 M259.7,40.9c0.3,0.5,0.5,1.2,0.8,1.7l0.3,0.8c0.7,3.1,2.1,6,4.1,8.5l0.6,0.7
	c1,1.5,2,2.9,2.7,4.6l1.1-1.6c-0.4-0.1-0.6-0.2-0.7-0.6c-0.5-1.2-1-2.4-1.7-3.6c-0.1-0.3-0.2-0.6-0.4-0.9c-1.3-2.3-2.4-4.8-3.3-7.3
	l-0.3-0.8c-0.2-0.2-0.3-0.4-0.3-0.6l-0.8-1.3c-0.1-0.2-0.3-0.4-0.3-0.6L261,39c-0.1,0.1-0.2,0.3-0.3,0.3l-0.5,0.9l-0.4,0.5
	L259.7,40.9z M281.1,56.4l-2.3-0.1c-2.2,0-4.3-0.5-6.5-0.8c-0.2,0-0.4-0.2-0.6-0.4l-0.7,1.2l-0.5,0.7h0.1c2.1,0.4,4.1,1,6.2,1.4
	c0.3,0.1,0.6,0.1,0.8,0.1l1.4,0.1c3,0.2,6,0.3,8.9-0.5c0.2-0.1,0.5-0.1,0.6,0l0.4-0.6l0.4-0.8L281.1,56.4z M264.1,34.4
	c1.6,1.9,2.1,4.7,3.5,6.7c0.2,0.2,0.3,0.4,0.4,0.7c0.2,0.2,0.3,0.4,0.3,0.6c0.9,1.6,1.8,2.9,2.5,4.6c0.4,0.9,0.7,2,1.2,2.9l0.3,0.8
	l0.2-0.4l0.8-1.6c-0.1-0.1-0.2-0.2-0.2-0.3c-0.5-1.3-1-2.6-1.5-3.8l-0.3-0.8c-0.4-1-0.8-2.2-1.3-3.2l-0.3-0.8
	c-0.8-1.9-2.1-3.7-2.9-5.7l-0.2-0.6c-0.1-0.4-0.3-0.8-0.4-1.3c-0.3,0.2-0.6,0.6-0.9,0.9l-0.6,0.5L264.1,34.4z M258.4,47.6
	c0.6,1.5,1.3,2.9,2.1,4.4c0.1,0.3,0.3,0.5,0.4,0.8c1.5,2.9,3.1,5.6,4.7,8.4c0.2-0.4,0.4-0.7,0.6-1l0.5-0.7c0-0.2,0.2-0.4,0.3-0.6
	c-0.4-0.1-0.6-0.3-0.7-0.6c-0.6-1.5-1.5-2.8-2.4-4c-0.1-0.3-0.3-0.4-0.5-0.7c-0.1-0.2-0.3-0.4-0.4-0.6c-1.6-2.5-3.3-5-3.9-7.8
	l-0.8-2.1l-0.4,0.9l-0.6,1.4c0,0.1,0.2,0.2,0.3,0.4L258.4,47.6z M278.6,68.4c-2.6-0.2-5.3-0.2-8-0.3c-0.4-0.1-0.7-0.1-1-0.1
	c-0.4,0-0.8,0-1.1-0.1c-0.6-0.1-1.1-0.4-1.7-0.8c-0.5-0.2-0.9-0.5-1.5-0.6c-0.2,0-0.4-0.2-0.5-0.2l-0.3,0.4l-0.4,0.8l-0.7,1.3
	l0.1,0.1c1.7,1,3.6,1.1,5.5,1.3h0.9l0.9,0.1c1.2,0.1,2.4,0.3,3.7,0c0.3-0.1,0.5-0.1,0.8,0c0,0.1,0.1,0.1,0.2,0.2
	C276.6,69.8,277.6,69.1,278.6,68.4 M292,49.6c-2.4-0.4-4.8-0.6-7.3-0.9c-0.3-0.1-0.6-0.1-0.9-0.1c-2.5-0.4-5.2-0.6-7.6-1.7
	c-0.6,0.9-1.1,1.8-1.6,2.8h0.9c0.4,0.1,0.7,0.1,1,0.1l5.8,0.4l2,0.1c2.5,0,5.2,0.2,7.4,1.3c0.1,0,0.1-0.1,0.2-0.2l0.2-0.8l0.3-1
	C292.2,49.6,292.1,49.6,292,49.6 M285.7,62c0.5-0.5,0.9-1,1.3-1.6c-2.8,0.6-5.6,0.5-8.4,0.2c-1.6,0-3.1-0.2-4.6-0.8
	c-0.7-0.2-1.4-0.3-2.2-0.4c-0.7-0.2-1.5-0.3-2.1-0.6l-0.4-0.2l-1.1,1.8c1.5,0.3,2.9,0.7,4.3,1c1.4,0.3,2.8,0.7,4.2,0.8
	c2.9,0.1,5.8-0.3,8.5-0.3C285.5,61.9,285.6,62,285.7,62 M281.5,23c-0.8,0.3-1.5,0.6-2.2,0.9c0.1,0.8,0.4,1.7,0.8,2.5l1,2.7
	c0.4,0.9,0.9,1.9,1.3,2.9l0.5,1.2c0.1,0.2,0.1,0.4,0.3,0.5l0.2,0.5l2.2-2.4c-0.2,0-0.4-0.2-0.5-0.4C283.6,28.8,282.6,25.9,281.5,23
	 M293,46.7c0.1-0.1,0.1-0.3,0.1-0.4c-2.2,0.1-4.3-0.7-6.5-1.2c-0.2-0.2-0.4-0.2-0.6-0.2s-0.4,0-0.7-0.2l-0.8-0.1l-0.9-0.3l-0.8-0.2
	c-1.3-0.7-2.7-0.7-4.1-0.6h-0.1l-0.4,0.8c-0.1,0.3-0.3,0.4-0.4,0.6c1.1,0.1,2.2,0.6,3.3,0.8L282,46c0.9,0.3,1.8,0.5,2.6,0.5l1,0.2
	l6.8,0.9c0.2,0,0.4,0.1,0.4,0.2l0.1-0.1L293,46.7z M262.6,38.2c0.3,0.4,0.4,0.8,0.8,1.2c0.1,0.2,0.3,0.4,0.4,0.7
	c0.2,0.2,0.3,0.4,0.3,0.6c0.7,1.2,1.2,2.6,1.8,3.8l0.3,0.8c0.4,0.8,0.8,1.6,1.1,2.5c0.2,0.2,0.3,0.5,0.4,0.8
	c0.8,1.5,1.6,3.1,2.3,4.8l0.2,0.7l0.9-1.3c-0.1-0.1-0.1-0.1-0.2-0.2c-0.1-0.3-0.3-0.4-0.4-0.7c-0.7-1.2-1.1-2.6-1.7-3.9
	c-0.3-0.8-0.6-1.6-1-2.3c-0.5-0.7-0.9-1.3-1.3-2l-1.2-2.2c-0.1-0.2-0.3-0.4-0.4-0.7c-0.6-1.7-1.4-3.2-2.1-4.9l-1,1.3l0.4,0.4
	L262.6,38.2z M295.4,34c-1.6,0.5-3.2,0-4.8,0c-0.4-0.1-0.7-0.1-0.9-0.2l-2.1-0.3c-0.2,0-0.5,0-0.7,0.1l-0.4-0.1l-0.4,0.5l-1.6,1.8
	c1.1,0,2.7,0.4,3.6,0.4h0.9c0.3,0.1,0.6,0.1,0.8,0.1c0.6,0.1,1.2,0.1,1.7,0.1l0.9,0.1c0.8-0.1,1.7,0.1,2.4-0.1
	c0.1-0.4,0.2-0.7,0.3-1.1c0-0.2,0-0.5,0.1-0.8C295.3,34.3,295.3,34.1,295.4,34 M255.9,49.8c0.4,1.3,1.1,2.4,1.7,3.5
	c0.7,1.1,1.5,2.3,2.1,3.6c1.3,2.5,2.3,5.2,3.7,7.7c0,0.1,0.1,0.1,0.2,0.2c0.3-0.7,0.6-1.4,1-2.1c-0.2,0-0.4-0.2-0.6-0.4
	c-2.7-4.7-5.5-9.4-7.6-14.4l-0.6,1.7L255.9,49.8z M256.3,58.3c0.1,0.2,0.3,0.4,0.3,0.6c1.3,2.4,2.6,4.8,4.2,7l0.5,0.7
	c0.3,0.4,0.5,1,0.7,1.5l0.9-1.8c-0.4,0-0.8-0.1-1-0.4c-0.1-0.3-0.3-0.5-0.4-0.8l-0.5-0.8l-1.5-3.2l-0.3-0.8
	c-0.4-0.8-0.8-1.6-1.1-2.5l-2.1-3.7l-0.7-1v1.3c0.1,0.2,0,0.4,0,0.6c0,0.2,0,0.4,0,0.6v0.9c0,0.2,0,0.4,0.1,0.7L256.3,58.3z
	 M293.9,42.2c-1.8,0.3-3.7,0.1-5.4-0.2l-0.8-0.1c-0.7-0.3-1.5-0.4-2.3-0.5c-0.3-0.1-0.5-0.1-0.8-0.1c-0.2-0.2-0.4-0.2-0.6-0.2
	l-0.6-0.1c-0.6-0.1-1.2-0.2-1.8-0.6c-0.2-0.2-0.3-0.2-0.4-0.4c-0.6,0.7-1.3,1.4-1.7,2.2c1.1-0.6,2.7-0.6,4,0l0.8,0.4l1.5,0.4
	c0.2,0,0.5,0.1,0.8,0.1l1.7,0.4c1.8,0.5,3.6,1,5.3,0.8L293.9,42.2z M277.4,24.8c-0.5,0.2-0.9,0.4-1.4,0.6c0.2,1,0.5,1.9,0.9,2.8
	l1.1,3c0.4,1.4,0.9,3.1,1.6,4.4l0.5,0.8c0.4,0.2,0.6,0.5,0.6,0.8c0,0.1,0.1,0.2,0,0.2c0.5-0.5,0.9-1.1,1.3-1.7l-0.6-0.8
	c-0.1-0.2-0.3-0.4-0.4-0.7l-0.5-1.4c-0.4-1-0.8-1.9-1.3-2.9c-0.4-1-0.8-2.1-1.2-3C277.8,26.1,277.5,25.5,277.4,24.8 M274.2,26.4
	c-0.6,0.3-1.1,0.6-1.7,1.1c0.6,0.8,1.1,1.8,1.5,2.9c0.1,0.3,0.1,0.6,0.2,0.9l0.3,0.8c0.5,1.4,1.2,2.6,1.9,4l0.5,0.8
	c0.6,1.3,1.5,2.3,1.9,3.7l1.1-1.7c-0.7-0.2-1-1.1-1.5-1.7c-0.1-0.4-0.3-0.6-0.4-0.9c-0.7-1.3-1.2-2.7-1.7-4.2
	C275.6,30.1,274.7,28.4,274.2,26.4 M294.4,38.3c-1.2,0.1-2.5,0.1-3.8-0.1h-0.9l-0.8-0.2c-0.3,0-0.5,0-0.8-0.1
	c-1.6,0-3.9,0.2-4.6-0.9c-0.4,0.5-0.7,1-1.1,1.4c0,0.1,0,0.1,0.1,0.1c2.1,0.1,3.8,1.4,5.9,1.8l0.9,0.1h0.8c1.2,0.2,2.5,0.1,3.7,0
	c0.1,0,0.2-0.1,0.3,0v-0.8L294.4,38.3z M268.1,31.9c1.6,2.9,3.4,5.7,4.1,8.9l1.3,3.6c0.1,0.3,0.2,0.6,0.4,0.8l0.6,1.6
	c0.4-0.7,0.9-1.4,1.4-2.1c-0.4,0-0.8-0.1-0.9-0.5c-0.4-1.1-1.1-2.1-1.5-3.3L273,40c-0.6-3-2.6-5.5-3.9-8.3c-0.1-0.3-0.3-0.5-0.4-0.8
	c-0.1-0.2-0.2-0.3-0.3-0.5c-0.2,0.1-0.3,0.2-0.4,0.4l-0.2,0.1L268.1,31.9z M285,21.9c-0.5,0.2-1,0.3-1.5,0.5c1,2.6,1.9,5.4,3.3,7.9
	l0.1,0.4l1.7-1.8c-0.2,0-0.6-0.1-0.7-0.5C286.4,26.4,285.8,24.2,285,21.9 M270.4,30.2c0.1,0.2,0.2,0.3,0.3,0.5l0.2,0.6
	c1.2,2,2.2,4.2,3.2,6.4l0.3,0.8c0.8,1.7,1.9,3.4,2.4,5.1l0.3-0.6l0.4-0.6c-0.1-0.1-0.3-0.2-0.3-0.3c-0.8-1.5-1.5-3-2.3-4.6
	c-0.1-0.2-0.3-0.4-0.4-0.7c-0.9-1.8-1.9-3.6-2.7-5.4c-0.1-0.2-0.1-0.5-0.2-0.7c-0.1-0.3-0.3-0.5-0.4-0.7c-0.2-0.5-0.4-0.9-0.8-1.3
	l-0.8,0.6L270.4,30.2z M268.7,74.1c1.2-0.5,2.3-1.2,3.5-1.8l-1.8-0.1h-0.8h-0.9c-2.1-0.1-4.2-0.3-6-1.4c-0.1,0-0.1-0.1-0.1-0.1
	c-0.3,0.5-0.5,1.2-0.7,1.8c0.9,0.4,1.9,0.5,3,0.6c1.2,0.1,2.4,0.3,3.5,0.8C268.5,73.9,268.6,74,268.7,74.1 M289.1,20.8
	c-0.8,0.2-1.5,0.3-2.1,0.6c0.7,2,1.3,4,2.5,5.8l0.2,0.6c0.2-0.3,0.6-0.5,0.9-0.8c0.1-0.1,0.1-0.1,0.2-0.2v-0.1
	c-0.1-0.3-0.1-0.5-0.2-0.8l-0.1-0.7C289.9,23.7,289.2,22.4,289.1,20.8 M296.3,30.2c-1.9,0.7-4.1,0.4-6,0.1l-0.6-0.2
	c-0.6,0.4-1,0.9-1.6,1.5l0.9,0.1l0.7,0.2c2.1,0.6,4.3,0,6.2,0C296.1,31.4,296.2,30.8,296.3,30.2 M256.3,64.1
	c1.2,1.3,1.3,3.1,2.2,4.4c0.1,0.3,0.2,0.6,0.4,0.8c0.4,0.7,0.8,1.5,1.3,2.1l1-1.9c-0.5,0.1-1-0.1-1.1-0.6l-0.3-0.8
	c-0.1-0.3-0.3-0.5-0.4-0.7c-1.4-2.1-3-4.2-3.9-6.5l0.2,3L256.3,64.1z M256.4,71.3c0.3,2.1,0.6,4.2,0.9,6.2l0.8-2
	c0.3-0.5,0.5-1.2,0.8-1.7l0.5-0.7c-0.4-0.1-0.6-0.2-0.8-0.4c-0.6-0.6-1.1-1.4-1.5-2.3c-0.1-0.3-0.3-0.5-0.4-0.8
	c-0.2-0.5-0.4-0.8-0.6-1.3l0.1,1C256.3,69.9,256.4,70.7,256.4,71.3 M294.5,26.9c-0.3,0.1-0.6-0.1-0.8-0.4l-0.6,0.5
	c-0.2,0.3-0.5,0.5-0.7,0.7c-0.3,0.2-0.7,0.5-1,0.8c0.1,0,0.2,0,0.3,0c1.4,0.1,3,0.1,4.5-0.4c0.2-0.1,0.4,0,0.5,0l0.1-0.5l0.3-0.9
	l0.1-0.4C296.5,26.6,295.5,26.7,294.5,26.9 M266.3,75.3c-1.8-0.4-3.7-0.2-5.4-1l-0.4,0.9l0.4,0.2c0.7,0.5,1.7,0.4,2.5,0.7
	c0.3,0.1,0.5,0.2,0.6,0.4L266.3,75.3z M296.5,19.7c-0.6,0-1.1,0.1-1.7,0.2c0,0.9-0.2,1.9,0,3l2.3-2.4l1.3-1.1l-1,0.2
	C297.1,19.5,296.8,19.6,296.5,19.7 M290.6,20.6c0.8,1.5,1.3,3,1.8,4.7l1.1-1.1c-0.8-1.1-1.4-2.6-1.2-4L290.6,20.6z M300,20.6
	l-0.5,0.5c-0.2,0.2-0.3,0.3-0.5,0.4l-3.3,3.2c0.6-0.1,1.3-0.2,1.9-0.4c0.3-0.1,0.4,0,0.6,0l0.8-1.9l0.4-0.8L300,20.6z M258.9,79
	l1.1-0.4l1.7-0.9c-0.7-0.2-1.3-0.4-2-0.8L258.9,79z"/>
<path class="st2" d="M271.9,101.1c-2,0.6-1.1,3.7,1.1,3.2l0.9-0.3c4.1-0.4,7.6-2,11-4.6c0.4-0.2,1.2-0.6,1.8-0.4
	c0.3,0.1,0.7,0,1.2,0.1c2,0.1,4.9,0.5,7,1c0.5,0,1.1-0.1,1.6,0c3.6,0,7.3,0,11-0.1c5.6-0.1,11.2-0.3,16.6-0.5c0.5,0,1.1-0.1,1.6,0
	l2.7-0.4l1.3-0.2c2.7-0.6,5.5-1.1,8.1-1.9l1.3-0.4c3.1-0.8,5.8-2.4,8.7-3.8c0.4-0.2,0.8-0.5,1.1-0.8l1.2-0.6
	c0.4-0.2,0.8-0.5,1.1-0.8l1.2-0.7l1.3-0.9l2.2-1.7l1.3-0.9l0.8-1.2c2.9-3.5,7.6-5.1,9.8-9.1l1-1.2c1.5-1.9,2.9-4,4.1-6.1
	c8.5-13.7,11.6-30.3,11.9-46.6l-0.1-1.8v-3.5c0.1-0.3,0-0.7,0.1-1l-0.1-1.2c-0.3-3.2,0.6-6.6-1.6-9.4c-0.5-0.6-1.1-0.6-1.5-0.2
	s-1,1.2-1.1,1.6l-0.7,1.4c-0.2,0.3-0.5,0.7-0.9,1l-1.1,1.1l-0.9,0.7l-1.5,1c-1.9,1.3-3.9,2.5-6.1,3.6l-1.2,0.7l-1.4,0.7
	c-3.1,1.2-6,2.4-9,3.4c-0.6,0.2-1,0.5-1.5,0.5c-2,1.1-4,2.2-6.1,2.9c-0.5,0-1.1,0.3-1.5,0.5c-5,1.2-9.7,2.9-14.6,4.3l-1.5,0.3
	l-4.2,1.4c-0.5,0-0.9,0.3-1.3,0.5l-1.2,0.6c-3.4,2.5-7.2,4.2-10.2,7.1l-1,1.2c-2.6,2.8-5.5,5.5-8.4,8.2l-0.8,1.4
	c-1.7,2.2-3.1,4.4-4.4,6.8c-5.2,9.2-7.9,19.3-11.6,28.8c-0.9,2.4-2,4.6-2.7,7c-0.2,1-0.3,2-0.9,2.9l-0.8,1.2l-0.9,0.7
	c-0.2,0.1-0.4,0.4-0.8,0.5c-2.1,1.6-4.6,2.4-7.1,3l-1.1,0.3L271.9,101.1z M309,49.6c0.2-0.1,0.4-0.4,0.5-0.6
	c0.4,4.1,0.4,8.3,1.2,12.4c0.7,4.9,3.1,9.4,4.8,14.2c0.2,0.6,0.7,0.9,1,0.9c-1.3,1.2-2.8,2.3-4.3,3.3c-0.6-2-2.4-3.2-3-5
	c-0.3-1.1-0.3-2.2-0.4-3.2c-0.2-0.6-0.2-1.3-0.3-1.8l-0.4-1.8c0-1.6-0.3-3.2-0.4-4.8l-0.2-1.3l-0.3-1.1c-0.4-1.8-1.5-4-1-5.8
	c0.1-0.3,0-0.7-0.1-1.1c0.6-1.1,1.4-2.1,2.1-3.1L309,49.6z M325.8,35.3c2.2,3.3,2.9,7.6,3.3,11.4l1.6,7.8l0.2,1.4
	c0.5,2.4,0.5,4.6,1.3,7.1c0.1,0.2,0.2,0.4,0.4,0.4h-0.2c-0.2,0.3-0.6,0.5-1.1,0.8c-0.7,0.7-1.5,1.2-2.3,1.7c-0.1-4-2.1-7.8-2.7-11.8
	l-0.1-1.2l-0.3-1.1l-2.4-15.3c0.4-0.1,0.8-0.3,1.2-0.6C325,35.6,325.4,35.5,325.8,35.3 M353.1,85c-0.9-0.4-2.1-0.7-3.1-0.9l-1.3-0.3
	c-5.4-0.6-10.5-2.4-15.1-5.2l-1.4-0.8c-2.6-1.3-5.2-2.8-8.2-3.5l2.4-2.2c0.2,0.6,0.5,1,1.1,1.1c2.1,0.5,4.2,1.2,6.4,2.1
	c0.5,0.1,1,0.2,1.6,0.6c4.1,1.7,8.5,3.1,12.9,4l1.3,0.3c0.3,0.2,0.8,0.4,1.1,0.4l2.3,1.1c0.3,0.1,0.8,0.4,1.1,0.4l1.6,0.7
	c-0.2,0.1-0.4,0.4-0.5,0.6l-1.5,1L353.1,85L353.1,85z M322.8,52.4l0.6,3.8c0.5,3.6,1.8,7,2.6,10.7c0.1,0.4,0.4,0.6,0.8,0.9l-1.9,1.5
	l-1.1,1v-0.2c-1.1-3.4-2.6-6.7-3.7-10.1c-0.2-0.4-0.3-0.9-0.4-1.3l-0.5-2.4c-0.9-4.9-1.8-10-0.9-15c0.1-0.3,0-0.9-0.1-1.1l0.9-0.8
	l1.2-0.7L322.8,52.4z M363,76.3c-3.5-2.2-8.2-2.5-11.9-4.4c-0.5-0.3-0.8-0.4-1.3-0.5c-0.3-0.2-0.8-0.4-1.1-0.4
	c-2.8-1.2-5.3-2.5-8.3-3.2c-1.6-0.6-3.4-0.8-5-1.4l-1.5-0.4l0.6-0.4L337,64c0.1,0.2,0.3,0.2,0.6,0.3c2.3,0.6,4.6,1.1,6.7,1.8
	l1.5,0.4c1.8,0.4,3.8,0.9,5.5,1.5l1.5,0.4c3.4,1,6.6,2.8,10.1,3.6l1,0.2c0.7,0.2,1.5,0.4,2.2,0.3c-0.3,0.6-0.8,1.2-1.3,1.6l-0.8,1
	L363,76.3z M342.2,88.5c-2.6-0.6-5.2-1.6-7.7-2.5c-0.5-0.1-0.9-0.4-1.4-0.5c-5.1-1.9-9.9-4.1-15-6.2c0.6-0.4,1.1-0.8,1.5-1.2l1.1-1
	c0.4-0.1,0.6-0.4,0.9-0.7c0.2,0.6,0.7,0.9,1.2,1c2.6,0.6,4.9,1.9,7.2,3.1c0.5,0.1,0.8,0.4,1.2,0.6c0.3,0.1,0.8,0.4,1.1,0.6
	c4.5,2.1,9,4.4,13.9,4.9l3.6,0.9l-1.4,0.9l-2.2,1.2c-0.2,0-0.5-0.3-0.8-0.4L342.2,88.5z M303.1,59c0.9,4.4,1.4,8.8,2.2,13.4
	c0.2,0.6,0.3,1.1,0.3,1.6c0,0.7,0.2,1.3,0.4,1.8c0.3,0.9,1,1.8,1.6,2.6c0.5,0.8,1,1.5,1.3,2.4c0.1,0.4,0.4,0.6,0.5,0.8l-0.6,0.5
	l-1.3,0.9l-2.1,1.4l-0.1-0.2c-2-2.6-2.6-5.8-3.2-8.9l-0.1-1.6l-0.3-1.5c-0.4-2-0.9-4-0.8-6.3c0.1-0.5,0-0.9-0.2-1.3
	c-0.2,0-0.1-0.2-0.3-0.2C301.2,62.7,302.2,60.8,303.1,59 M332,32.8c1.1,3.9,1.9,7.9,3,12c0.2,0.4,0.3,0.9,0.3,1.5
	c1.3,4.1,2.1,8.5,4.3,12.3c-1.3,1.2-2.8,2.3-4.3,3.3l-0.2-1.4c-0.2-0.6-0.3-1.1-0.3-1.6l-1.8-9.6l-0.6-3.3
	c-0.6-4.1-1.4-8.7-3.7-12.2c0-0.2,0.2-0.1,0.2-0.3l1.3-0.5l1.5-0.7C331.9,32.4,331.9,32.6,332,32.8 M312.5,45.8
	c0.7-0.9,1.5-1.7,2.3-2.6c-0.4,4.8,0.3,9.4,1.3,14c0.4,2.7,1,5.1,2.4,7.5c0.4,1.1,0.8,2.3,1.1,3.6c0.4,1.1,0.8,2.4,1.4,3.5l0.4,0.6
	l-2.8,2.3c-0.8-2.4-1.8-4.8-2.6-7.1c-0.8-2.3-1.7-4.6-2.2-6.9c-0.7-4.9-0.6-9.7-1.2-14.3C312.6,46.2,312.5,46,312.5,45.8
	 M378.5,44.8c-0.3,1.3-0.6,2.6-1.1,3.9c-1.4,0-2.9-0.3-4.3-0.9l-4.8-1.1c-1.6-0.6-3.4-1.2-5.2-1.6l-2.1-0.5
	c-0.3-0.1-0.7-0.2-0.9-0.4l-0.8-0.2l3.6-4.2c0.1,0.4,0.4,0.6,0.7,0.7C368.5,42.6,373.4,43.6,378.5,44.8 M336.5,30.6
	c0.2-0.1,0.4-0.2,0.6-0.2c0.3,3.7,2.1,7.1,3.3,10.7c0.3,0.2,0.4,0.6,0.5,1c0.1,0.4,0.2,0.7,0.4,1.1l0.4,1.3l0.7,1.4l0.5,1.3
	c1.4,2.1,1.7,4.4,1.9,6.7v0.2l-1.3,0.9c-0.4,0.2-0.6,0.5-0.9,0.8c-0.4-1.8-1.4-3.6-2-5.3l-0.7-1.4c-0.7-1.4-1.2-2.9-1.4-4.3
	l-0.5-1.7l-2.8-11.3c-0.1-0.4-0.2-0.6-0.4-0.6l0.2-0.1L336.5,30.6z M357,79.6c-0.8-0.4-1.4-0.5-2.2-1c-0.3-0.1-0.8-0.4-1.3-0.5
	c-0.3-0.2-0.8-0.4-1.1-0.4c-2.2-0.9-4.5-1.4-6.8-2.1l-1.3-0.3c-1.4-0.5-2.9-1-4.4-1.4c-0.5-0.3-0.9-0.4-1.4-0.5
	c-2.7-1-5.6-2-8.5-2.9l-1.1-0.3l2-1.8c0.1,0.2,0.1,0.2,0.3,0.2c0.5,0.1,0.8,0.4,1.3,0.5c2.2,0.9,4.6,1.3,6.8,2
	c1.3,0.3,2.8,0.7,4.1,1.1c1.2,0.6,2.3,1.2,3.6,1.7l4,1.5c0.3,0.1,0.8,0.4,1.3,0.5c3,0.7,5.7,1.7,8.6,2.6l-2,1.9l-0.7-0.5L357,79.6z
	 M357.3,23.9c-0.5,2.8,0.6,5.4,1,8c0.2,0.6,0.3,1.1,0.5,1.5l0.9,3.5c0.1,0.4,0.1,0.9,0.1,1.2l0.2,0.6l-0.7,0.7l-2.6,3
	c-0.3-1.8-1.2-4.4-1.4-5.9l-0.1-1.6c-0.2-0.4-0.3-0.9-0.4-1.3c-0.3-0.9-0.4-2-0.5-2.9l-0.3-1.5c0-1.4-0.6-2.7-0.4-4.1
	c0.6-0.2,1.1-0.4,1.8-0.8c0.4-0.1,0.9-0.1,1.3-0.4C356.8,24.2,357.1,24.1,357.3,23.9 M339,93.3c-2.2-0.3-4.2-1.4-6.2-2.2
	c-2-1-4.2-2-6.4-2.8c-4.5-1.6-9.2-2.7-13.6-4.7c-0.2,0-0.1-0.2-0.3-0.2c1.2-0.6,2.2-1.4,3.3-2.2c0.1,0.4,0.4,0.6,0.8,0.9
	c8.3,3.6,16.8,7.3,25.6,9.8l-2.8,1.4L339,93.3z M324.7,94.3c-0.3-0.1-0.8-0.4-1.1-0.4c-4.3-1.7-8.6-3.3-12.5-5.6l-1.2-0.6
	c-0.8-0.4-1.8-0.6-2.6-0.8l2.9-1.9c0,0.7,0.4,1.3,0.8,1.6c0.5,0.1,0.9,0.4,1.4,0.5l1.4,0.7l5.6,1.9l1.5,0.4c1.4,0.5,2.9,1,4.4,1.4
	l6.6,2.8l1.8,1l-2.2,0.3c-0.3-0.1-0.7,0-1.1,0.1c-0.4,0.1-0.7,0.2-1.1,0.1l-1.6,0.1c-0.4,0.1-0.7,0.2-1.2,0.1L324.7,94.3z
	 M343.8,28.2c-0.1,3.1,0.6,6.2,1.5,9l0.4,1.3c0.6,1.2,1,2.5,1.3,3.8c0.2,0.4,0.3,0.8,0.4,1.3c0.3,0.2,0.4,0.6,0.5,1l0.3,0.9
	c0.3,0.9,0.6,2,1.4,2.9c0.3,0.2,0.4,0.4,0.7,0.5c-1.1,1.1-2.1,2.4-3.4,3.3c0.8-2.1,0.4-4.6-0.8-6.6l-0.7-1.2l-1-2.5
	c-0.1-0.4-0.3-0.8-0.4-1.3l-1.1-2.7c-1.2-2.9-2.4-5.8-2.4-8.7L343.8,28.2z M376.4,52.1c-0.2,0.8-0.6,1.6-0.8,2.4
	c-1.7-0.1-3.4-0.5-4.8-1l-5.2-1.3c-2.5-0.4-5.3-0.9-7.7-1.9l-1.4-0.7c-0.4-0.6-1-0.9-1.5-0.9c-0.2,0-0.3-0.1-0.4,0.1
	c0.7-0.9,1.6-1.7,2.5-2.5l1.5,0.9c0.3,0.1,0.8,0.4,1.3,0.5l2.5,0.6c1.8,0.4,3.4,1,5.2,1.6c1.8,0.4,3.6,0.9,5.2,1.4
	C374.1,51.7,375.2,52,376.4,52.1 M374.4,57.9C374,59,373.6,60,373,61c-1.5-0.9-3.3-1.5-5.1-1.9c-0.5-0.1-1-0.1-1.5-0.2l-1.5-0.4
	c-2.5-0.6-4.7-1.5-7.1-2.4l-1.4-0.7c-2.3-0.7-4.2-2-6.5-2.4l2.6-2.2c0.4,1.1,2.1,1.4,3.1,2.1c0.7,0.2,1.1,0.4,1.6,0.6
	c2.4,0.9,4.8,1.5,7.3,1.9C367.8,56.1,371,57.4,374.4,57.9 M350.3,26.4c0,2.1,0.4,4.3,0.9,6.3l0.2,1.4l0.5,1.3c0,0.5,0.1,0.9,0.4,1.3
	c0.4,2.7,0.5,6.5,2.5,7.5c-0.7,0.7-1.5,1.4-2.1,2.1c-0.2,0-0.2,0-0.1-0.2c-0.6-3.4-3-6.1-4.1-9.5l-0.3-1.5L348,34
	c-0.6-2-0.7-4.2-0.8-6.3c0-0.2,0.1-0.3,0-0.5l1.3-0.2L350.3,26.4z M366.4,69.2c-5.2-2.1-10.2-4.5-15.8-5l-6.2-1.5
	c-0.5-0.1-1-0.2-1.4-0.5l-2.8-0.7c1.1-0.8,2.2-1.7,3.3-2.9c0,0.7,0.4,1.3,1,1.5c2,0.5,3.8,1.4,5.8,1.9l1.6,0.7
	c5.1,0.4,9.6,3.2,14.6,4.9c0.5,0.1,0.9,0.4,1.4,0.5c0.3,0.1,0.6,0.3,0.9,0.4c-0.1,0.3-0.3,0.6-0.5,0.7l-0.1,0.3L366.4,69.2z
	 M379.6,38.8c-0.2,0.8-0.2,1.7-0.5,2.7c-4.6-1.1-9.4-2.1-13.8-3.8l-0.7-0.2l2.7-3.2c0.1,0.4,0.3,0.9,1,1.1
	C371.8,37.3,375.7,37.9,379.6,38.8 M368.9,64.9c-0.3-0.1-0.6-0.3-0.9-0.4l-1-0.2c-3.6-1.6-7.5-2.8-11.3-4.1l-1.3-0.3
	c-3.1-0.9-6-2.5-9-3l0.9-0.7l0.9-0.8c0.1,0.2,0.4,0.4,0.6,0.5c2.7,1,5.3,2,8.2,2.8c0.3,0.1,0.8,0.4,1.3,0.5c3.2,1.1,6.4,2.4,9.6,3.3
	c0.3,0.1,0.9,0,1.2,0.1c0.5,0.1,0.9,0.4,1.3,0.5c0.8,0.2,1.6,0.6,2.3,1.1l-0.9,1.5L368.9,64.9z M295.7,76.8c0.7-2.1,1.5-4.1,2.4-6.2
	l0.5,3.1l0.2,1.3l0.2,1.4c0.6,3.4,1.3,6.9,3.6,9.7c0,0.2,0.1,0.2,0.1,0.2c-0.9,0.7-1.8,1.1-2.8,1.6c-0.9-1.4-1.2-3.1-1.6-4.9
	c-0.4-2-0.9-4-2.1-5.7C296,77.1,295.9,76.8,295.7,76.8 M380.6,31.8c-0.2,1.4-0.3,2.5-0.5,3.7c-3.4-0.8-7-1.3-10.2-3l-1-0.2
	c0.4-0.4,0.8-1,1.1-1.6c0.2-0.1,0.2-0.1,0.2-0.3h0.2c0.5,0.1,0.9,0,1.4,0.2l1.2-0.1C375.6,30.9,378,31.9,380.6,31.8 M363.5,21.6
	c-0.8,3.3,0.2,7,1,10.1l0.5,1c-0.6,1.1-1.3,1.9-2.1,3l-0.3-1.5l-0.4-1.1c-1.4-3.5-0.9-7.2-1.3-10.4
	C361.6,22.2,362.5,21.9,363.5,21.6 M315,95.5c-2.3-1.8-5.4-1.5-7.8-2.8c-0.5-0.1-1-0.2-1.4-0.5c-1.3-0.5-2.7-1-3.7-1.8l2.9-2.1
	c0,0.9,0.3,1.6,1.2,1.7l1.3,0.3c0.5,0.1,0.9,0.4,1.3,0.5c3.9,2,7.7,4.1,11.8,5.2l-5.1,0.3L315,95.5z M302.9,96.7
	c-3.6,0-7.1-0.1-10.5-0.3l3.2-1.8c0.9-0.7,1.8-1.1,2.6-1.6l1.1-1c0.2,0.6,0.5,1,0.9,1.3c1.2,0.8,2.6,1.5,4.2,2
	c0.5,0.1,0.9,0.4,1.4,0.5c0.8,0.2,1.4,0.5,2.3,0.7l-1.8,0.1C305.2,96.6,304,96.7,302.9,96.7 M369.3,23.9c-0.1,0.5,0.3,0.9,0.7,1.2
	l-0.8,1c-0.4,0.4-0.7,0.9-1,1.3c-0.3,0.6-0.6,1.2-1.1,1.8c0-0.2-0.1-0.4,0-0.5c-0.5-2.4-0.9-5.1-0.3-7.5c0.1-0.3,0-0.7-0.1-0.9
	l0.8-0.3l1.4-0.7l0.6-0.2C369.4,20.6,369.6,22.2,369.3,23.9 M294.2,81c1,2.9,1.1,6.2,2.7,8.8l-1.4,0.9l-0.4-0.6
	c-1-1.1-1.1-2.7-1.6-4c-0.2-0.4-0.5-0.8-0.8-0.9L294.2,81z M381.1,19.1c0.1,1.1,0.1,1.9,0,2.9c-1.6,0.1-3.1,0.8-5,0.5l3.5-4.4
	l1.6-2.4l-0.1,1.7C381.1,18,381.2,18.6,381.1,19.1 M380.7,29.2c-2.7-1-5.3-1.6-8.2-2l1.5-2.1c2,1.2,4.6,1.8,6.8,1.1L380.7,29.2z
	 M378.8,13.5l-0.7,0.9c-0.2,0.3-0.5,0.6-0.6,0.9l-4.6,6.2c0.1-1,0-2.2,0.3-3.2c0.1-0.5,0-0.7-0.1-1.1l3-1.7l1.3-0.9L378.8,13.5z
	 M289.5,94.2l0.5-2l1.1-3c0.4,1.1,0.9,2.1,1.7,3.2L289.5,94.2z"/>
</svg>
