<?xml version="1.0" encoding="UTF-8"?> <!-- Generator: Adobe Illustrator 23.0.3, SVG Export Plug-In . SVG Version: 6.00 Build 0) --> <svg xmlns="http://www.w3.org/2000/svg" xmlns:xlink="http://www.w3.org/1999/xlink" version="1.1" id="Ebene_2" x="0px" y="0px" viewBox="0 0 708.66 273.62" style="enable-background:new 0 0 708.66 273.62;" xml:space="preserve"> <style type="text/css"> .st0{fill:#020203;} .st1{fill:#E52722;} </style> <g> <g> <path class="st0" d="M372.83,213.16h-4v-39.3h11.55c1.92,0,3.71,0.19,5.36,0.56c1.65,0.37,3.07,0.97,4.27,1.8 c1.2,0.83,2.14,1.91,2.8,3.25c0.67,1.33,1,2.96,1,4.89c0,1.44-0.26,2.76-0.78,3.94c-0.52,1.18-1.22,2.21-2.11,3.08 c-0.89,0.87-1.94,1.56-3.16,2.08c-1.22,0.52-2.55,0.85-4,1l11.49,18.71h-4.89l-10.88-18.37h-6.66V213.16z M372.83,191.35h6.94 c3.22,0,5.7-0.58,7.44-1.75c1.74-1.17,2.61-2.91,2.61-5.25c0-1.29-0.24-2.39-0.72-3.28c-0.48-0.89-1.15-1.61-2-2.17 c-0.85-0.56-1.89-0.96-3.11-1.22c-1.22-0.26-2.57-0.39-4.05-0.39h-7.11V191.35z"></path> <path class="st0" d="M426.46,200.17c0,1.96-0.34,3.77-1.03,5.44c-0.69,1.67-1.64,3.11-2.86,4.33c-1.22,1.22-2.68,2.17-4.39,2.86 c-1.7,0.68-3.57,1.03-5.61,1.03c-2,0-3.85-0.34-5.55-1.03c-1.7-0.68-3.16-1.64-4.39-2.86c-1.22-1.22-2.17-2.66-2.86-4.33 c-0.69-1.67-1.03-3.48-1.03-5.44c0-1.96,0.34-3.77,1.03-5.44c0.68-1.67,1.64-3.11,2.86-4.33c1.22-1.22,2.68-2.17,4.39-2.86 c1.7-0.68,3.55-1.03,5.55-1.03c2.03,0,3.9,0.34,5.61,1.03c1.7,0.69,3.16,1.64,4.39,2.86c1.22,1.22,2.17,2.66,2.86,4.33 C426.11,196.4,426.46,198.21,426.46,200.17z M422.46,200.17c0-1.44-0.23-2.8-0.69-4.08c-0.46-1.28-1.12-2.39-1.97-3.33 c-0.85-0.94-1.89-1.69-3.11-2.25c-1.22-0.56-2.59-0.83-4.11-0.83c-1.52,0-2.88,0.28-4.08,0.83c-1.2,0.56-2.23,1.3-3.08,2.25 c-0.85,0.94-1.51,2.05-1.97,3.33c-0.46,1.28-0.69,2.64-0.69,4.08s0.23,2.8,0.69,4.08c0.46,1.28,1.12,2.39,1.97,3.33 c0.85,0.94,1.88,1.68,3.08,2.22c1.2,0.54,2.56,0.8,4.08,0.8c1.52,0,2.89-0.27,4.11-0.8c1.22-0.54,2.26-1.28,3.11-2.22 c0.85-0.94,1.51-2.05,1.97-3.33C422.23,202.98,422.46,201.62,422.46,200.17z"></path> <path class="st0" d="M437.89,213.16h-3.77V171.2h3.77V213.16z"></path> <path class="st0" d="M451.32,213.16h-3.77V171.2h3.77V213.16z"></path> <path class="st0" d="M464.76,213.16h-3.77V171.2h3.77V213.16z"></path> <path class="st0" d="M490.68,196.35c0-2.24-0.59-3.91-1.78-5.01c-1.18-1.1-2.91-1.65-5.16-1.65c-1.55,0-3,0.28-4.33,0.83 s-2.46,1.3-3.39,2.22l-2.11-2.5c1.07-1.07,2.49-1.96,4.25-2.66c1.76-0.7,3.75-1.05,5.97-1.05c1.41,0,2.72,0.19,3.94,0.58 s2.29,0.97,3.22,1.75c0.92,0.78,1.65,1.76,2.17,2.94c0.52,1.18,0.78,2.57,0.78,4.16v11.38c0,1,0.04,2.04,0.11,3.11 c0.07,1.07,0.18,1.98,0.33,2.72h-3.39c-0.11-0.63-0.2-1.31-0.28-2.05c-0.07-0.74-0.11-1.46-0.11-2.16h-0.11 c-1.18,1.74-2.53,2.99-4.02,3.75c-1.5,0.76-3.3,1.14-5.41,1.14c-1,0-2.03-0.14-3.08-0.42c-1.05-0.28-2.02-0.73-2.89-1.36 c-0.87-0.63-1.59-1.45-2.16-2.45c-0.57-1-0.86-2.23-0.86-3.68c0-2.01,0.51-3.59,1.53-4.76c1.02-1.17,2.38-2.04,4.08-2.62 c1.7-0.58,3.65-0.95,5.86-1.11c2.2-0.17,4.49-0.25,6.86-0.25V196.35z M489.57,200.17c-1.55,0-3.12,0.07-4.69,0.19 c-1.57,0.13-3,0.39-4.27,0.78c-1.28,0.39-2.32,0.95-3.14,1.69c-0.81,0.74-1.22,1.72-1.22,2.94c0,0.93,0.18,1.7,0.53,2.33 c0.35,0.63,0.82,1.14,1.42,1.53c0.59,0.39,1.25,0.67,1.97,0.83c0.72,0.17,1.45,0.25,2.19,0.25c1.33,0,2.52-0.23,3.55-0.69 c1.04-0.46,1.91-1.09,2.61-1.89c0.7-0.8,1.24-1.71,1.61-2.75c0.37-1.04,0.56-2.13,0.56-3.28v-1.94H489.57z"></path> <path class="st0" d="M524.76,208.78c-1.11,1.67-2.55,2.92-4.33,3.77c-1.78,0.85-3.61,1.28-5.5,1.28c-2.04,0-3.88-0.35-5.52-1.05 c-1.65-0.7-3.05-1.67-4.22-2.89c-1.17-1.22-2.07-2.66-2.72-4.33c-0.65-1.67-0.97-3.46-0.97-5.38c0-1.92,0.32-3.72,0.97-5.38 c0.65-1.67,1.55-3.11,2.72-4.33c1.17-1.22,2.57-2.18,4.22-2.89c1.65-0.7,3.49-1.05,5.52-1.05c1.89,0,3.72,0.44,5.5,1.3 c1.78,0.87,3.22,2.16,4.33,3.86h0.11V171.2h3.77v41.97h-3.77v-4.39H524.76z M505.5,200.17c0,1.44,0.22,2.8,0.67,4.08 c0.44,1.28,1.08,2.39,1.92,3.33c0.83,0.94,1.86,1.68,3.08,2.22c1.22,0.54,2.61,0.8,4.16,0.8c1.44,0,2.78-0.27,4-0.8 c1.22-0.54,2.28-1.27,3.16-2.19c0.89-0.92,1.58-2.03,2.08-3.3c0.5-1.28,0.75-2.65,0.75-4.14c0-1.48-0.25-2.86-0.75-4.14 c-0.5-1.28-1.19-2.39-2.08-3.33c-0.89-0.94-1.94-1.68-3.16-2.22c-1.22-0.54-2.55-0.81-4-0.81c-1.55,0-2.94,0.28-4.16,0.83 c-1.22,0.56-2.25,1.3-3.08,2.25c-0.83,0.94-1.47,2.05-1.92,3.33C505.72,197.37,505.5,198.73,505.5,200.17z"></path> <path class="st0" d="M561.84,199.39c0,0.26,0,0.54,0,0.83c0,0.3-0.02,0.61-0.06,0.94h-21.54c0.04,1.3,0.3,2.52,0.78,3.66 c0.48,1.15,1.15,2.15,2,3c0.85,0.85,1.85,1.53,3,2.03c1.15,0.5,2.39,0.75,3.72,0.75c1.96,0,3.65-0.45,5.08-1.36 c1.42-0.91,2.51-1.95,3.25-3.14l2.83,2.22c-1.55,1.96-3.27,3.37-5.13,4.22c-1.87,0.85-3.88,1.28-6.02,1.28 c-1.92,0-3.71-0.34-5.36-1.03c-1.65-0.68-3.06-1.64-4.25-2.86c-1.18-1.22-2.12-2.66-2.8-4.33c-0.69-1.67-1.03-3.48-1.03-5.44 c0-1.96,0.33-3.77,1-5.44c0.67-1.67,1.59-3.11,2.78-4.33c1.18-1.22,2.57-2.17,4.16-2.86c1.59-0.68,3.31-1.03,5.16-1.03 c2.03,0,3.83,0.34,5.38,1.03c1.55,0.69,2.85,1.61,3.89,2.78c1.04,1.17,1.82,2.53,2.36,4.08 C561.57,195.95,561.84,197.62,561.84,199.39z M558.01,198.17c-0.11-2.44-0.9-4.47-2.36-6.08c-1.46-1.61-3.54-2.41-6.24-2.41 c-1.26,0-2.42,0.23-3.5,0.69c-1.07,0.46-2.02,1.09-2.83,1.89c-0.81,0.8-1.46,1.7-1.94,2.72c-0.48,1.02-0.76,2.08-0.83,3.19H558.01 z"></path> <path class="st0" d="M572.78,187.18c0.07,0.7,0.13,1.48,0.17,2.33c0.04,0.85,0.06,1.55,0.06,2.11h0.11 c0.74-1.52,1.94-2.75,3.61-3.69c1.67-0.94,3.42-1.42,5.27-1.42c3.29,0,5.76,0.98,7.41,2.94c1.65,1.96,2.47,4.55,2.47,7.77v15.93 h-3.77v-14.38c0-1.37-0.11-2.61-0.33-3.72c-0.22-1.11-0.6-2.06-1.14-2.86c-0.54-0.8-1.26-1.42-2.16-1.86 c-0.91-0.44-2.05-0.67-3.41-0.67c-1,0-1.97,0.2-2.91,0.61c-0.94,0.41-1.79,1.03-2.53,1.86c-0.74,0.83-1.33,1.89-1.78,3.16 c-0.44,1.28-0.67,2.78-0.67,4.52v13.32h-3.77V192.9c0-0.7-0.02-1.61-0.06-2.72c-0.04-1.11-0.09-2.11-0.17-3H572.78z"></path> <path class="st0" d="M387.88,235.65c-0.85-1.18-1.94-2.14-3.28-2.86c-1.33-0.72-2.94-1.08-4.83-1.08c-0.96,0-1.94,0.15-2.94,0.44 c-1,0.3-1.91,0.75-2.72,1.36c-0.81,0.61-1.47,1.38-1.97,2.3c-0.5,0.93-0.75,2.02-0.75,3.28c0,1.26,0.24,2.29,0.72,3.11 c0.48,0.81,1.12,1.51,1.91,2.08c0.79,0.57,1.7,1.05,2.71,1.42c1.01,0.37,2.08,0.74,3.18,1.11c1.37,0.44,2.74,0.93,4.12,1.44 c1.38,0.52,2.63,1.19,3.74,2.03c1.11,0.83,2.01,1.89,2.71,3.16c0.7,1.28,1.05,2.9,1.05,4.86c0,1.96-0.37,3.65-1.12,5.08 c-0.75,1.43-1.72,2.6-2.91,3.52c-1.2,0.93-2.56,1.61-4.1,2.05c-1.54,0.44-3.08,0.67-4.64,0.67c-1.18,0-2.37-0.12-3.55-0.36 c-1.19-0.24-2.31-0.6-3.39-1.08c-1.07-0.48-2.07-1.09-3-1.83c-0.93-0.74-1.74-1.59-2.44-2.55l3.44-2.55 c0.85,1.41,2.04,2.58,3.58,3.52c1.54,0.94,3.34,1.42,5.41,1.42c1,0,2.02-0.16,3.05-0.47c1.04-0.31,1.97-0.8,2.8-1.44 c0.83-0.65,1.52-1.44,2.05-2.39c0.54-0.94,0.8-2.04,0.8-3.3c0-1.37-0.27-2.51-0.8-3.41c-0.54-0.91-1.25-1.67-2.14-2.28 c-0.89-0.61-1.91-1.12-3.05-1.53c-1.15-0.41-2.35-0.81-3.61-1.22c-1.3-0.41-2.57-0.87-3.83-1.39c-1.26-0.52-2.39-1.19-3.39-2.03 c-1-0.83-1.8-1.86-2.42-3.08c-0.61-1.22-0.92-2.72-0.92-4.5c0-1.89,0.38-3.52,1.14-4.89c0.76-1.37,1.75-2.5,2.97-3.39 c1.22-0.89,2.57-1.54,4.05-1.94c1.48-0.41,2.94-0.61,4.39-0.61c2.66,0,4.94,0.47,6.83,1.42c1.89,0.94,3.31,2.06,4.27,3.36 L387.88,235.65z"></path> <path class="st0" d="M425.18,255.63c0,1.96-0.34,3.77-1.03,5.44c-0.69,1.67-1.64,3.11-2.86,4.33c-1.22,1.22-2.68,2.17-4.39,2.86 c-1.7,0.68-3.57,1.03-5.61,1.03c-2,0-3.85-0.34-5.55-1.03c-1.7-0.68-3.16-1.64-4.39-2.86c-1.22-1.22-2.17-2.66-2.86-4.33 c-0.69-1.67-1.03-3.48-1.03-5.44c0-1.96,0.34-3.77,1.03-5.44c0.68-1.67,1.64-3.11,2.86-4.33c1.22-1.22,2.68-2.17,4.39-2.86 c1.7-0.68,3.55-1.03,5.55-1.03c2.04,0,3.9,0.34,5.61,1.03c1.7,0.69,3.16,1.64,4.39,2.86c1.22,1.22,2.17,2.66,2.86,4.33 C424.84,251.86,425.18,253.67,425.18,255.63z M421.18,255.63c0-1.44-0.23-2.8-0.69-4.08c-0.46-1.28-1.12-2.39-1.97-3.33 c-0.85-0.94-1.89-1.69-3.11-2.25c-1.22-0.56-2.59-0.83-4.11-0.83c-1.52,0-2.88,0.28-4.08,0.83c-1.2,0.56-2.23,1.3-3.08,2.25 c-0.85,0.94-1.51,2.05-1.97,3.33c-0.46,1.28-0.69,2.64-0.69,4.08s0.23,2.8,0.69,4.08c0.46,1.28,1.12,2.39,1.97,3.33 c0.85,0.94,1.88,1.68,3.08,2.22c1.2,0.54,2.56,0.8,4.08,0.8c1.52,0,2.89-0.27,4.11-0.8c1.22-0.54,2.26-1.28,3.11-2.22 c0.85-0.94,1.51-2.05,1.97-3.33C420.95,258.43,421.18,257.07,421.18,255.63z"></path> <path class="st0" d="M436.11,242.64c0.07,0.7,0.13,1.48,0.17,2.33c0.04,0.85,0.06,1.55,0.06,2.11h0.11 c0.74-1.52,1.94-2.75,3.61-3.69c1.67-0.94,3.42-1.42,5.27-1.42c3.29,0,5.76,0.98,7.41,2.94c1.65,1.96,2.47,4.55,2.47,7.77v15.93 h-3.77v-14.38c0-1.37-0.11-2.61-0.33-3.72c-0.22-1.11-0.6-2.06-1.14-2.86c-0.54-0.8-1.26-1.42-2.17-1.86 c-0.91-0.44-2.05-0.67-3.41-0.67c-1,0-1.97,0.2-2.91,0.61c-0.94,0.41-1.79,1.03-2.53,1.86c-0.74,0.83-1.33,1.89-1.78,3.16 c-0.44,1.28-0.67,2.78-0.67,4.52v13.32h-3.77v-20.26c0-0.7-0.02-1.61-0.06-2.72c-0.04-1.11-0.09-2.11-0.17-3H436.11z"></path> <path class="st0" d="M467.81,242.64c0.07,0.7,0.13,1.48,0.17,2.33c0.04,0.85,0.06,1.55,0.06,2.11h0.11 c0.74-1.52,1.94-2.75,3.61-3.69c1.67-0.94,3.42-1.42,5.27-1.42c3.29,0,5.76,0.98,7.41,2.94c1.65,1.96,2.47,4.55,2.47,7.77v15.93 h-3.77v-14.38c0-1.37-0.11-2.61-0.33-3.72s-0.6-2.06-1.14-2.86c-0.54-0.8-1.26-1.42-2.16-1.86c-0.91-0.44-2.04-0.67-3.41-0.67 c-1,0-1.97,0.2-2.91,0.61c-0.94,0.41-1.79,1.03-2.53,1.86c-0.74,0.83-1.33,1.89-1.78,3.16c-0.44,1.28-0.67,2.78-0.67,4.52v13.32 h-3.77v-20.26c0-0.7-0.02-1.61-0.06-2.72c-0.04-1.11-0.09-2.11-0.17-3H467.81z"></path> <path class="st0" d="M519.77,254.85c0,0.26,0,0.54,0,0.83c0,0.3-0.02,0.61-0.06,0.94h-21.54c0.04,1.3,0.3,2.52,0.78,3.66 c0.48,1.15,1.15,2.15,2,3c0.85,0.85,1.85,1.53,3,2.03c1.15,0.5,2.39,0.75,3.72,0.75c1.96,0,3.65-0.45,5.08-1.36 c1.42-0.91,2.51-1.95,3.25-3.14l2.83,2.22c-1.55,1.96-3.27,3.37-5.13,4.22c-1.87,0.85-3.88,1.28-6.02,1.28 c-1.92,0-3.71-0.34-5.36-1.03c-1.65-0.68-3.06-1.64-4.25-2.86c-1.18-1.22-2.12-2.66-2.8-4.33c-0.69-1.67-1.03-3.48-1.03-5.44 c0-1.96,0.33-3.77,1-5.44c0.67-1.67,1.59-3.11,2.78-4.33c1.18-1.22,2.57-2.17,4.16-2.86c1.59-0.68,3.31-1.03,5.16-1.03 c2.03,0,3.83,0.34,5.38,1.03c1.55,0.69,2.85,1.61,3.89,2.78c1.04,1.17,1.82,2.53,2.36,4.08 C519.5,251.41,519.77,253.08,519.77,254.85z M515.93,253.63c-0.11-2.44-0.9-4.47-2.36-6.08c-1.46-1.61-3.54-2.41-6.24-2.41 c-1.26,0-2.42,0.23-3.5,0.69c-1.07,0.46-2.02,1.09-2.83,1.89c-0.81,0.8-1.46,1.7-1.94,2.72c-0.48,1.02-0.76,2.08-0.83,3.19H515.93 z"></path> <path class="st0" d="M530.7,242.64c0.07,0.7,0.13,1.48,0.17,2.33c0.04,0.85,0.06,1.55,0.06,2.11h0.11 c0.74-1.52,1.94-2.75,3.61-3.69c1.67-0.94,3.42-1.42,5.27-1.42c3.29,0,5.76,0.98,7.41,2.94c1.65,1.96,2.47,4.55,2.47,7.77v15.93 h-3.77v-14.38c0-1.37-0.11-2.61-0.33-3.72c-0.22-1.11-0.6-2.06-1.14-2.86c-0.54-0.8-1.26-1.42-2.16-1.86 c-0.91-0.44-2.05-0.67-3.41-0.67c-1,0-1.97,0.2-2.91,0.61c-0.94,0.41-1.79,1.03-2.53,1.86c-0.74,0.83-1.33,1.89-1.78,3.16 c-0.44,1.28-0.67,2.78-0.67,4.52v13.32h-3.77v-20.26c0-0.7-0.02-1.61-0.06-2.72c-0.04-1.11-0.09-2.11-0.17-3H530.7z"></path> <path class="st0" d="M572.83,248.8c-0.56-1.07-1.4-1.95-2.53-2.64c-1.13-0.68-2.41-1.03-3.86-1.03c-0.67,0-1.33,0.07-2,0.22 c-0.67,0.15-1.26,0.39-1.78,0.72c-0.52,0.33-0.93,0.76-1.25,1.28c-0.31,0.52-0.47,1.13-0.47,1.83c0,1.22,0.5,2.16,1.5,2.8 c1,0.65,2.57,1.19,4.72,1.64c3.07,0.63,5.34,1.55,6.8,2.75c1.46,1.2,2.19,2.82,2.19,4.86c0,1.48-0.29,2.73-0.86,3.75 c-0.57,1.02-1.32,1.85-2.25,2.5c-0.93,0.65-1.97,1.11-3.14,1.39c-1.17,0.28-2.34,0.42-3.52,0.42c-1.96,0-3.87-0.41-5.72-1.22 c-1.85-0.81-3.37-2.09-4.55-3.83l3-2.22c0.67,1.15,1.65,2.11,2.94,2.89c1.29,0.78,2.72,1.17,4.27,1.17c0.81,0,1.59-0.07,2.33-0.22 c0.74-0.15,1.39-0.41,1.94-0.78c0.56-0.37,1-0.84,1.33-1.42c0.33-0.57,0.5-1.29,0.5-2.14c0-1.37-0.66-2.4-1.97-3.08 c-1.31-0.68-3.21-1.32-5.69-1.91c-0.78-0.18-1.6-0.42-2.47-0.69c-0.87-0.28-1.67-0.68-2.41-1.22c-0.74-0.54-1.35-1.21-1.83-2.03 c-0.48-0.81-0.72-1.83-0.72-3.05c0-1.33,0.26-2.47,0.78-3.41c0.52-0.94,1.21-1.72,2.08-2.33c0.87-0.61,1.86-1.06,2.97-1.36 c1.11-0.3,2.26-0.44,3.44-0.44c1.81,0,3.57,0.41,5.27,1.22c1.7,0.81,2.98,1.96,3.83,3.44L572.83,248.8z"></path> <path class="st0" d="M601.81,248.58c-0.63-1-1.55-1.82-2.75-2.47c-1.2-0.65-2.51-0.97-3.91-0.97c-1.52,0-2.89,0.27-4.11,0.81 c-1.22,0.54-2.27,1.28-3.14,2.22c-0.87,0.94-1.54,2.05-2,3.33c-0.46,1.28-0.69,2.66-0.69,4.14c0,1.48,0.23,2.85,0.69,4.11 c0.46,1.26,1.12,2.36,1.97,3.3c0.85,0.94,1.89,1.68,3.11,2.22c1.22,0.54,2.59,0.8,4.11,0.8c1.67,0,3.07-0.31,4.22-0.94 c1.15-0.63,2.09-1.44,2.83-2.44l2.83,2.11c-1.11,1.37-2.47,2.46-4.08,3.28c-1.61,0.81-3.54,1.22-5.8,1.22 c-2.11,0-4.02-0.34-5.72-1.03c-1.7-0.68-3.16-1.64-4.36-2.86c-1.2-1.22-2.14-2.66-2.8-4.33c-0.67-1.67-1-3.48-1-5.44 c0-1.96,0.33-3.77,1-5.44c0.67-1.67,1.6-3.11,2.8-4.33c1.2-1.22,2.65-2.17,4.36-2.86c1.7-0.68,3.61-1.03,5.72-1.03 c1.74,0,3.51,0.38,5.3,1.14c1.79,0.76,3.25,1.88,4.36,3.36L601.81,248.58z"></path> <path class="st0" d="M614.3,246.92c0.7-1.52,1.87-2.72,3.5-3.61c1.63-0.89,3.37-1.33,5.22-1.33c3.29,0,5.76,0.98,7.41,2.94 c1.65,1.96,2.47,4.55,2.47,7.77v15.93h-3.77v-14.38c0-1.37-0.11-2.61-0.33-3.72s-0.6-2.06-1.14-2.86 c-0.54-0.8-1.26-1.42-2.17-1.86c-0.91-0.44-2.04-0.67-3.41-0.67c-1,0-1.97,0.2-2.91,0.61c-0.94,0.41-1.79,1.03-2.53,1.86 c-0.74,0.83-1.33,1.89-1.78,3.16c-0.44,1.28-0.67,2.78-0.67,4.52v13.32h-3.77v-41.97h3.77v20.26H614.3z"></path> <path class="st0" d="M660.98,268.62c-0.07-0.7-0.13-1.48-0.17-2.33c-0.04-0.85-0.06-1.55-0.06-2.11h-0.11 c-0.74,1.52-1.94,2.75-3.61,3.69c-1.66,0.94-3.42,1.42-5.27,1.42c-3.29,0-5.76-0.98-7.41-2.94c-1.65-1.96-2.47-4.55-2.47-7.77 v-15.93h3.77v14.38c0,1.37,0.11,2.61,0.33,3.72c0.22,1.11,0.6,2.06,1.14,2.86c0.54,0.8,1.26,1.42,2.16,1.86 c0.91,0.44,2.04,0.67,3.41,0.67c1,0,1.97-0.2,2.91-0.61c0.94-0.41,1.79-1.03,2.53-1.86c0.74-0.83,1.33-1.89,1.78-3.16 c0.44-1.28,0.67-2.78,0.67-4.52v-13.32h3.78v20.26c0,0.7,0.02,1.61,0.06,2.72c0.04,1.11,0.09,2.11,0.17,3H660.98z"></path> <path class="st0" d="M685.51,245.81h-7.33v15.15c0,0.96,0.09,1.76,0.28,2.39c0.18,0.63,0.45,1.12,0.81,1.47 c0.35,0.35,0.77,0.59,1.25,0.72c0.48,0.13,1,0.19,1.55,0.19c0.52,0,1.06-0.07,1.64-0.22c0.57-0.15,1.12-0.35,1.64-0.61l0.17,3.28 c-0.67,0.26-1.36,0.45-2.08,0.58c-0.72,0.13-1.51,0.19-2.36,0.19c-0.7,0-1.44-0.09-2.22-0.28c-0.78-0.18-1.5-0.54-2.17-1.05 c-0.67-0.52-1.21-1.22-1.64-2.11c-0.43-0.89-0.64-2.05-0.64-3.5v-16.21h-5.38v-3.16h5.38v-7.33h3.77v7.33h7.33V245.81z"></path> <path class="st0" d="M708.11,245.31l-15.54,20.04h16.1v3.28h-21.09v-2.66l15.49-20.15h-14.71v-3.16h19.76V245.31z"></path> </g> <path class="st0" d="M12.01,227.33c-0.7,16.3,1.32,30.62,3.75,41.47h30.42c-5.93-20.6-14.09-70.92,27.93-116.82v55.79h29.59V104.22 H0.13v29.59h50.52C21.31,166.79,13.11,201.56,12.01,227.33z"></path> <path class="st0" d="M120.35,179.45c-2.83,18.97-1.36,38.31,4.38,57.48c3.18,10.62,7.7,21.27,13.52,31.87h34.7 c-19.57-28.69-27.43-57.14-23.37-84.76c4.11-27.93,19.73-50.61,33.63-65.85v53.83h29.59V69.7H110.47v29.59h49.84 C143.73,117.72,125.49,145.01,120.35,179.45z"></path> <path class="st0" d="M258.11,82.21c-24.04,36.71-32.73,74.34-25.13,108.82c6.25,28.38,23.09,54.34,50.33,77.77h50.28 c-7.58-4.66-14.6-9.43-21.03-14.32c-28.09-21.32-45.13-44.77-50.66-69.69c-8.57-38.62,11.75-75.23,29.8-98.7v51.41h29.59V33.95 H218.96v29.59h52.78C267.3,69.04,262.64,75.3,258.11,82.21z"></path> <g> <path class="st1" d="M0,5.32h7.32v22.35h0.17l17.2-22.35h9.88L15.34,29.2l20.51,27.83H25.56L7.49,31.1H7.32v25.93H0V5.32z"></path> <path class="st1" d="M41.61,5.32h10.22l20.14,38.71h0.12V5.32h7.71v51.72h-9.79L49.45,17.08h-0.12v39.96h-7.71V5.32z"></path> <path class="st1" d="M87.5,31.03c0-4.14,0.66-7.88,1.99-11.21c1.33-3.33,3.16-6.17,5.51-8.51c2.35-2.34,5.14-4.14,8.37-5.41 c3.23-1.27,6.75-1.9,10.56-1.9c3.86,0,7.41,0.63,10.67,1.9c3.25,1.27,6.07,3.07,8.44,5.41c2.37,2.34,4.22,5.17,5.54,8.51 c1.32,3.34,1.99,7.07,1.99,11.21c0,4.04-0.66,7.73-1.99,11.07c-1.33,3.34-3.17,6.21-5.54,8.62c-2.37,2.41-5.18,4.29-8.44,5.62 c-3.25,1.34-6.81,2.01-10.67,2.01c-3.81,0-7.33-0.67-10.56-2.01c-3.23-1.34-6.02-3.21-8.37-5.62c-2.35-2.41-4.18-5.28-5.51-8.62 C88.16,38.76,87.5,35.07,87.5,31.03z M97.05,31.03c0,2.78,0.41,5.32,1.22,7.63c0.81,2.31,1.98,4.32,3.49,6.03 c1.51,1.71,3.3,3.03,5.37,3.98c2.07,0.95,4.36,1.42,6.87,1.42c2.51,0,4.81-0.48,6.9-1.42c2.09-0.95,3.89-2.28,5.4-3.98 c1.51-1.7,2.67-3.71,3.49-6.03c0.81-2.31,1.22-4.86,1.22-7.63c0-2.68-0.41-5.16-1.22-7.45c-0.81-2.29-1.96-4.28-3.45-5.99 c-1.49-1.7-3.28-3.04-5.37-4.02c-2.09-0.97-4.42-1.46-6.97-1.46s-4.87,0.49-6.94,1.46c-2.07,0.97-3.85,2.31-5.33,4.02 c-1.49,1.71-2.64,3.7-3.45,5.99C97.46,25.87,97.05,28.35,97.05,31.03z"></path> <path class="st1" d="M146.25,5.32h8.36v43.54h19.97v8.18h-28.33V5.32z"></path> <path class="st1" d="M178.49,5.32h8.36v43.54h19.97v8.18h-28.33V5.32z"></path> </g> </g> </svg> 